<?xml version="1.0" encoding="utf-8"?>
<!-- Generator: Adobe Illustrator 19.2.1, SVG Export Plug-In . SVG Version: 6.00 Build 0)  -->
<svg version="1.1" id="Layer_1" xmlns="http://www.w3.org/2000/svg" xmlns:xlink="http://www.w3.org/1999/xlink" x="0px" y="0px"
	 viewBox="0 0 250 250" style="enable-background:new 0 0 250 250;" xml:space="preserve">
<style type="text/css">
	.st0{fill:#231F20;}
</style>
<g>
	<g>
		<path class="st0" d="M179.9,244.3H92.5c-1.8,0-3.2-1.5-3.2-3.2v-47H65c-23.8,0-43.2-18.9-43.2-42.2v-9.7H6.7
			c-1.1,0-2.2-0.6-2.8-1.5s-0.6-2.2-0.1-3.2l18-35.6V46.5C21.8,23.2,41.2,4.3,65,4.3h74.9c23.8,0,43.2,18.9,43.2,42.2V72h-6.5V46.5
			c0-19.7-16.5-35.7-36.7-35.7H65c-20.2,0-36.7,16-36.7,35.7v56.2c0,0.5-0.1,1-0.3,1.5L12,135.7h13c1.8,0,3.2,1.5,3.2,3.2v12.9
			c0,19.7,16.5,35.7,36.7,35.7h27.5c1.8,0,3.2,1.5,3.2,3.2v47h80.9v-14.5h6.5v17.7C183.1,242.9,181.6,244.3,179.9,244.3z"/>
	</g>
	<g>
		<path class="st0" d="M125.1,130.3H92.7c-1.6,0-2.9-1.3-2.9-2.9v-18c-14.3-7.2-23.5-21.9-23.5-38.1c0-23.5,19.1-42.6,42.6-42.6
			s42.6,19.1,42.6,42.6c0,16.1-9.2,30.9-23.5,38.1v18C128,129,126.7,130.3,125.1,130.3z M95.6,124.5h26.6v-17c0-1.2,0.7-2.2,1.7-2.7
			c13.2-5.9,21.8-19.1,21.8-33.6c0-20.3-16.5-36.8-36.8-36.8S72.1,51,72.1,71.3c0,14.5,8.5,27.6,21.8,33.6c1,0.5,1.7,1.5,1.7,2.7
			V124.5z"/>
		<rect x="106" y="79.5" class="st0" width="5.8" height="47.9"/>
		<path class="st0" d="M108.9,82.4c-6.9,0-12.6-5.6-12.6-12.6c0-6.9,5.6-12.6,12.6-12.6c6.9,0,12.6,5.6,12.6,12.6
			C121.5,76.8,115.8,82.4,108.9,82.4z M108.9,63.1c-3.7,0-6.7,3-6.7,6.7c0,3.7,3,6.7,6.7,6.7c3.7,0,6.7-3,6.7-6.7
			C115.6,66.1,112.6,63.1,108.9,63.1z"/>
		<path class="st0" d="M125.1,145.4H92.7c-1.6,0-2.9-1.3-2.9-2.9v-15.1c0-1.6,1.3-2.9,2.9-2.9h32.4c1.6,0,2.9,1.3,2.9,2.9v15.1
			C128,144.1,126.7,145.4,125.1,145.4z M95.6,139.6h26.5v-9.3H95.6V139.6z"/>
		<path class="st0" d="M118.5,161.8H99.3c-1.6,0-2.9-1.3-2.9-2.9v-16.3c0-1.6,1.3-2.9,2.9-2.9h19.3c1.6,0,2.9,1.3,2.9,2.9v16.3
			C121.5,160.5,120.2,161.8,118.5,161.8z M102.2,155.9h13.4v-10.5h-13.4V155.9z"/>
	</g>
	<g>
		<path class="st0" d="M210.3,244.3c-12.4,0-22.4-10.1-22.4-22.4v-71.2c0-1.8,1.5-3.2,3.2-3.2h38.4c1.8,0,3.2,1.5,3.2,3.2v71.2
			C232.7,234.2,222.6,244.3,210.3,244.3z M194.3,153.9v67.9c0,8.8,7.2,15.9,15.9,15.9s15.9-7.2,15.9-15.9v-67.9H194.3z"/>
	</g>
	<path class="st0" d="M236.2,153.6h-51.9c-1.8,0-3.2-1.5-3.2-3.2v-15.7c0-1.8,1.5-3.2,3.2-3.2h51.9c1.8,0,3.2,1.5,3.2,3.2v15.7
		C239.4,152.2,238,153.6,236.2,153.6z M187.6,147.1H233v-9.2h-45.4V147.1z"/>
	<g>
		<path class="st0" d="M213.1,214.6h-8.9c-1.8,0-3.2-1.5-3.2-3.2v-44.2c0-1.8,1.5-3.2,3.2-3.2h8.9v6.5h-5.7v37.7h5.7V214.6z"/>
		<rect x="204.2" y="186" class="st0" width="8.9" height="6.5"/>
	</g>
	<path class="st0" d="M152.7,187.1c0,0-0.1,0-0.1,0h-33c-9.5,0-13.3-8.9-14-13.5c0-0.2,0-0.3,0-0.5v-14.2h6.5v14
		c0.2,1.2,1.7,7.8,7.5,7.8h33c0,0,3.3,0,5.4-2c1.2-1.2,1.7-2.8,1.7-5.1v-70c0.1-6.6,4.1-19,19-19h14.6c0.3,0,7.9,0,13.1,5.2
		c3.2,3.1,4.8,7.4,4.8,12.6v32.7h-6.5v-32.7c0-11-10.2-11.4-11.4-11.4h-14.6c-12.3,0-12.5,12.1-12.6,12.6v70c0,4-1.3,7.3-3.7,9.8
		C158.8,186.9,153.7,187.1,152.7,187.1z"/>
</g>
</svg>
