<?xml version="1.0" encoding="utf-8"?>
<!-- Generator: Adobe Illustrator 19.2.1, SVG Export Plug-In . SVG Version: 6.00 Build 0)  -->
<svg version="1.1" id="Layer_1" xmlns="http://www.w3.org/2000/svg" xmlns:xlink="http://www.w3.org/1999/xlink" x="0px" y="0px"
	 viewBox="0 0 250 250" style="enable-background:new 0 0 250 250;" xml:space="preserve">
<style type="text/css">
	.st0{fill:#231F20;}
</style>
<g>
	<g>
		<g>
			<path class="st0" d="M39.1,212.9H9.7c-1.8,0-3.2-1.4-3.2-3.2V66.1c0-1.8,1.4-3.2,3.2-3.2h29.4c1.8,0,3.2,1.4,3.2,3.2v143.6
				C42.3,211.5,40.9,212.9,39.1,212.9z M12.9,206.5h23V69.3h-23V206.5z"/>
			<path class="st0" d="M39.1,243H9.7c-1.8,0-3.2-1.4-3.2-3.2v-30.1c0-1.8,1.4-3.2,3.2-3.2h29.4c1.8,0,3.2,1.4,3.2,3.2v30.1
				C42.3,241.6,40.9,243,39.1,243z M12.9,236.6h23v-23.7h-23V236.6z"/>
		</g>
		<path class="st0" d="M39.1,69.3H9.7c-1.1,0-2.2-0.6-2.7-1.5c-0.6-1-0.6-2.1-0.1-3.1l14.7-28.3c1.1-2.1,4.6-2.1,5.7,0L42,64.6
			c0.5,1,0.5,2.2-0.1,3.1C41.3,68.7,40.2,69.3,39.1,69.3z M15,62.9h18.9l-9.4-18.2L15,62.9z"/>
		<rect x="21.2" y="170.3" class="st0" width="6.4" height="69.4"/>
	</g>
	<g>
		<g>
			<path class="st0" d="M240.7,54.7h-41.9c-1.8,0-3.2-1.4-3.2-3.2V9.6c0-1.3,0.8-2.5,2-3c1.2-0.5,2.6-0.2,3.5,0.7L243,49.3
				c0.9,0.9,1.2,2.3,0.7,3.5C243.2,53.9,242,54.7,240.7,54.7z M202,48.3h31l-31-31V48.3z"/>
			<path class="st0" d="M240.7,243H68c-1.8,0-3.2-1.4-3.2-3.2V9.6c0-1.8,1.4-3.2,3.2-3.2h130.8c0.9,0,1.7,0.3,2.3,0.9L243,49.3
				c0.6,0.6,0.9,1.4,0.9,2.3v188.3C243.9,241.6,242.5,243,240.7,243z M71.2,236.6h166.3V52.9l-40-40H71.2V236.6z"/>
		</g>
		<path class="st0" d="M154.3,126.7c-17.2,0-31.3-14-31.3-31.3s14-31.3,31.3-31.3s31.3,14,31.3,31.3S171.6,126.7,154.3,126.7z
			 M154.3,70.6c-13.7,0-24.9,11.2-24.9,24.9s11.2,24.9,24.9,24.9c13.7,0,24.9-11.2,24.9-24.9S168,70.6,154.3,70.6z"/>
		<rect x="112.9" y="151.1" class="st0" width="100.5" height="6.4"/>
		<rect x="96.9" y="180.5" class="st0" width="116.6" height="6.4"/>
		<rect x="96.9" y="208.8" class="st0" width="116.6" height="6.4"/>
		<rect x="86.2" y="34.5" class="st0" width="19.2" height="6.4"/>
		<rect x="116.1" y="34.5" class="st0" width="19.2" height="6.4"/>
		<rect x="146" y="34.5" class="st0" width="19.2" height="6.4"/>
	</g>
</g>
</svg>
