<?xml version="1.0" encoding="utf-8"?>
<!-- Generator: Adobe Illustrator 19.2.1, SVG Export Plug-In . SVG Version: 6.00 Build 0)  -->
<svg version="1.1" id="Layer_1" xmlns="http://www.w3.org/2000/svg" xmlns:xlink="http://www.w3.org/1999/xlink" x="0px" y="0px"
	 viewBox="0 0 250 250" style="enable-background:new 0 0 250 250;" xml:space="preserve">
<style type="text/css">
	.st0{fill:#010101;}
</style>
<g>
	<g>
		<path class="st0" d="M120.5,229.1c-2.7,0-5-2.2-5-5v-49.7c0-2.7,2.2-5,5-5c2.7,0,5,2.2,5,5v49.7
			C125.5,226.9,123.3,229.1,120.5,229.1z"/>
		<path class="st0" d="M140.4,229.1c-2.7,0-5-2.2-5-5v-19.9c0-2.7,2.2-5,5-5s5,2.2,5,5v19.9C145.4,226.9,143.2,229.1,140.4,229.1z"
			/>
		<path class="st0" d="M160.3,229.1c-2.7,0-5-2.2-5-5v-69.6c0-2.7,2.2-5,5-5c2.7,0,5,2.2,5,5v69.6
			C165.3,226.9,163.1,229.1,160.3,229.1z"/>
		<path class="st0" d="M180.2,229.1c-2.7,0-5-2.2-5-5v-49.7c0-2.7,2.2-5,5-5c2.7,0,5,2.2,5,5v49.7
			C185.2,226.9,182.9,229.1,180.2,229.1z"/>
	</g>
	<g>
		<path class="st0" d="M95.7,244H11.1c-2.7,0-5-2.2-5-5V65.8c0-1.2,0.4-2.3,1.2-3.2L54.3,7.1c0.9-1.1,2.3-1.8,3.8-1.8h122.1
			c2.7,0,5,2.2,5,5v124.3c0,2.7-2.2,5-5,5c-2.7,0-5-2.2-5-5V15.3H60.4L16.1,67.6v166.4h79.6c2.7,0,5,2.2,5,5
			C100.6,241.8,98.4,244,95.7,244z"/>
		<path class="st0" d="M60.9,74.9H16.1c-2.7,0-5-2.2-5-5c0-2.7,2.2-5,5-5h39.8V15.3c0-2.7,2.2-5,5-5c2.7,0,5,2.2,5,5V70
			C65.8,72.7,63.6,74.9,60.9,74.9z"/>
	</g>
</g>
</svg>
