<?xml version="1.0" encoding="UTF-8" standalone="no"?>
<svg width="68px" height="100px" viewBox="0 0 68 100" version="1.1" xmlns="http://www.w3.org/2000/svg" xmlns:xlink="http://www.w3.org/1999/xlink" xmlns:sketch="http://www.bohemiancoding.com/sketch/ns">
    <title>Untitled</title>
    <description>Created with Sketch (http://www.bohemiancoding.com/sketch)</description>
    <defs></defs>
    <g id="Page-1" stroke="none" stroke-width="1" fill="none" fill-rule="evenodd" sketch:type="MSPage">
        <g id="icon_14790" sketch:type="MSLayerGroup" transform="translate(1.000000, 0.000000)" fill="#FFFFFF">
            <g id="Group" transform="translate(9.000000, 60.000000)" sketch:type="MSShapeGroup">
                <path d="M11.277,12.629 C11.277,11.7 11.985,10.947 12.87,10.947 L16.898,10.947 C17.773,10.947 18.483,11.7 18.483,12.629 L18.483,16.862 C18.483,17.791 17.773,18.532 16.898,18.532 L12.87,18.532 C11.985,18.532 11.277,17.791 11.277,16.862 L11.277,12.629 L11.277,12.629 Z" id="Shape"></path>
                <path d="M0.102,12.629 C0.102,11.7 0.813,10.947 1.68,10.947 L5.72,10.947 C6.6,10.947 7.305,11.7 7.305,12.629 L7.305,16.862 C7.305,17.791 6.6,18.532 5.72,18.532 L1.68,18.532 C0.813,18.532 0.102,17.791 0.102,16.862 L0.102,12.629 L0.102,12.629 Z" id="Shape"></path>
                <path d="M22.064,12.629 C22.064,11.7 22.767,10.947 23.639,10.947 L27.682,10.947 C28.546,10.947 29.258,11.7 29.258,12.629 L29.258,16.862 C29.258,17.791 28.546,18.532 27.682,18.532 L23.64,18.532 C22.768,18.532 22.065,17.791 22.065,16.862 L22.065,12.629 L22.064,12.629 Z" id="Shape"></path>
                <path d="M11.277,1.579 C11.277,0.663 11.985,-0.09 12.87,-0.09 L16.898,-0.09 C17.773,-0.09 18.483,0.663 18.483,1.579 L18.483,5.831 C18.483,6.761 17.773,7.508 16.898,7.508 L12.87,7.508 C11.985,7.508 11.277,6.761 11.277,5.831 L11.277,1.579 L11.277,1.579 Z" id="Shape"></path>
                <path d="M0.102,1.579 C0.102,0.663 0.813,-0.09 1.68,-0.09 L5.72,-0.09 C6.6,-0.09 7.305,0.663 7.305,1.579 L7.305,5.831 C7.305,6.761 6.6,7.508 5.72,7.508 L1.68,7.508 C0.813,7.508 0.102,6.761 0.102,5.831 L0.102,1.579 L0.102,1.579 Z" id="Shape"></path>
                <path d="M22.064,1.579 C22.064,0.663 22.767,-0.09 23.639,-0.09 L27.682,-0.09 C28.546,-0.09 29.258,0.663 29.258,1.579 L29.258,5.831 C29.258,6.761 28.546,7.508 27.682,7.508 L23.64,7.508 C22.768,7.508 22.065,6.761 22.065,5.831 L22.065,1.579 L22.064,1.579 Z" id="Shape"></path>
                <path d="M11.277,23.919 C11.277,22.99 11.985,22.243 12.87,22.243 L16.898,22.243 C17.773,22.243 18.483,22.99 18.483,23.919 L18.483,28.158 C18.483,29.085 17.773,29.838 16.898,29.838 L12.87,29.838 C11.985,29.838 11.277,29.085 11.277,28.158 L11.277,23.919 L11.277,23.919 Z" id="Shape"></path>
                <path d="M0.102,23.919 C0.102,22.99 0.813,22.243 1.68,22.243 L5.72,22.243 C6.6,22.243 7.305,22.99 7.305,23.919 L7.305,28.158 C7.305,29.085 6.6,29.838 5.72,29.838 L1.68,29.838 C0.813,29.838 0.102,29.085 0.102,28.158 L0.102,23.919 L0.102,23.919 Z" id="Shape"></path>
                <path d="M22.064,23.919 C22.064,22.99 22.767,22.243 23.639,22.243 L27.682,22.243 C28.546,22.243 29.258,22.99 29.258,23.919 L29.258,28.158 C29.258,29.085 28.546,29.838 27.682,29.838 L23.64,29.838 C22.768,29.838 22.065,29.085 22.065,28.158 L22.065,23.919 L22.064,23.919 Z" id="Shape"></path>
            </g>
            <path d="M46.774,30.717 C47.587,29.483 47.948,27.846 47.163,26.329 C46.469,24.986 45.511,25.073 44.387,25.723 L43.283,26.367 C42.831,26.635 42.533,26.717 42.356,26.373 C42.172,26.018 42.369,25.559 42.674,25.233 C43.56,24.286 44.058,25.223 44.655,24.585 C45.097,24.112 45.238,23.378 44.927,22.775 C44.453,21.858 43.561,22.128 42.715,22.751 L41.972,21.312 C41.916,21.207 41.811,21.187 41.735,21.268 L40.562,22.521 C40.485,22.603 40.468,22.753 40.523,22.859 L41.236,24.238 C40.161,25.746 40.23,27.353 40.822,28.498 C41.383,29.584 42.252,29.791 43.328,29.191 L44.765,28.392 C45.158,28.172 45.387,28.127 45.549,28.44 C45.794,28.914 45.557,29.435 45.191,29.826 C44.312,30.764 43.649,29.718 43.012,30.398 C42.575,30.863 42.468,31.613 42.78,32.215 C43.081,32.798 43.948,33.274 45.319,32.252 L46.051,33.668 C46.106,33.772 46.211,33.793 46.286,33.712 L47.458,32.458 C47.536,32.378 47.553,32.227 47.498,32.121 L46.774,30.717 L46.774,30.717 Z" id="Shape" sketch:type="MSShapeGroup"></path>
            <path d="M47.759,90.764 C47.759,95.855 43.731,100 38.773,100 L8.914,100 C3.963,100 -0.064,95.854 -0.064,90.764 L-0.064,24.219 C-0.064,19.129 3.963,14.987 8.914,14.987 L35.7,14.987 C38.015,11.036 40.362,7.148 43.836,3.686 C47.149,0.383 51.129,-1.371 52.54,2.237 C47.887,2.972 42.681,8.821 37.87,14.987 C36.772,16.395 35.694,17.819 34.649,19.204 C33.213,21.104 31.837,22.93 30.55,24.53 C28.766,26.75 27.154,28.54 25.791,29.505 C25.795,29.529 25.803,29.553 25.807,29.576 C27.045,29.204 29.144,27.231 31.687,24.53 C33.178,22.948 34.821,21.114 36.535,19.204 C37.743,17.857 38.985,16.473 40.233,15.111 C45.928,8.896 51.738,3.164 54.892,3.725 C56.786,4.061 59.938,10.291 61.585,13.021 C62.906,15.272 64.228,17.526 65.548,19.777 C65.911,20.458 67.129,21.609 66.786,22.774 C66.414,23.956 59.97,25.24 50.311,36.536 C49.437,37.557 48.599,38.578 47.758,39.595 L47.758,90.764 L47.759,90.764 Z M41.458,46.516 C40.703,47.223 39.602,48.205 38.426,49.066 L38.426,52.647 C38.426,54.031 37.356,55.158 36.045,55.158 L11.654,55.158 C10.338,55.158 9.275,54.031 9.275,52.647 L9.275,27.047 C9.275,25.654 10.337,24.529 11.654,24.529 L29.012,24.529 C30.238,23.067 31.571,21.314 33.016,19.203 L8.914,19.203 C6.286,19.203 4.151,21.443 4.151,24.219 L4.151,90.764 C4.151,93.534 6.285,95.785 8.914,95.785 L38.773,95.785 C41.415,95.785 43.543,93.534 43.543,90.764 L43.543,44.439 C42.882,45.135 42.193,45.828 41.458,46.516 L41.458,46.516 Z M43.719,16.941 C39.456,17.498 36,22.86 36,28.918 C36,34.977 39.456,39.436 43.719,38.879 C47.982,38.322 51.438,32.96 51.438,26.902 C51.438,20.844 47.981,16.385 43.719,16.941 L43.719,16.941 Z" id="Shape" sketch:type="MSShapeGroup"></path>
        </g>
    </g>
</svg>