<?xml version="1.0" encoding="UTF-8" standalone="no"?>
<svg width="91px" height="91px" viewBox="0 0 91 91" version="1.1" xmlns="http://www.w3.org/2000/svg" xmlns:xlink="http://www.w3.org/1999/xlink" xmlns:sketch="http://www.bohemiancoding.com/sketch/ns">
    <title>Untitled 2</title>
    <description>Created with Sketch (http://www.bohemiancoding.com/sketch)</description>
    <defs></defs>
    <g id="Page-1" stroke="none" stroke-width="1" fill="none" fill-rule="evenodd" sketch:type="MSPage">
        <g id="icon_66252" sketch:type="MSLayerGroup" transform="translate(0.000000, 1.000000)" fill="#FFFFFF">
            <path d="M45.459,89.503 C42.94,89.503 40.484,89.244 38.076,88.848 L40.14,83.705 C41.884,83.941 43.651,84.104 45.459,84.104 C47.96,84.104 50.399,83.843 52.772,83.401 L46.774,76.904 L38.26,76.904 L36.46,76.904 L34.66,76.904 L34.66,71.506 L28.761,71.506 C28.138,72.576 26.99,73.306 25.662,73.306 C23.674,73.306 22.061,71.694 22.061,69.705 C22.061,67.716 23.673,66.105 25.662,66.105 C26.991,66.105 28.139,66.833 28.761,67.905 L34.66,67.905 L34.66,66.105 L34.66,62.504 L38.26,62.504 L56.26,62.504 L56.26,63.274 L60.676,68.058 C60.991,67.968 61.317,67.905 61.659,67.905 C63.647,67.905 65.259,69.517 65.259,71.506 C65.259,73.493 63.648,75.104 61.659,75.104 C59.67,75.104 58.06,73.494 58.06,71.506 C58.06,71.21 58.104,70.927 58.17,70.652 L53.973,66.105 L38.261,66.105 L38.261,73.305 L49.06,73.305 L49.06,74.073 L56.785,82.439 C63.361,80.479 69.199,76.838 73.856,72.044 L68.373,66.105 L67.06,66.105 L67.06,49.081 L61.625,43.198 C60.122,44.507 58.524,45.9 56.974,47.251 C56.675,47.514 56.081,48.03 56.081,48.03 L54.46,48.054 L54.46,48.105 L46.761,48.105 C46.138,49.177 44.99,49.906 43.661,49.906 C41.673,49.906 40.061,48.294 40.061,46.305 C40.061,44.316 41.673,42.706 43.661,42.706 C44.99,42.706 46.138,43.434 46.761,44.506 L54.46,44.506 L54.46,44.899 L65.259,35.276 L65.259,21.107 L58.061,21.107 L58.061,28.807 C59.131,29.43 59.859,30.578 59.859,31.906 C59.859,33.894 58.249,35.507 56.26,35.507 C54.273,35.507 52.66,33.895 52.66,31.906 C52.66,30.577 53.388,29.429 54.46,28.807 L54.46,21.107 L54.46,19.307 L54.46,17.507 L65.259,17.507 L65.259,10.324 C63.833,9.499 62.369,8.731 60.838,8.086 C60.265,8.35 59.632,8.508 58.959,8.508 C56.475,8.508 54.46,6.493 54.46,4.008 C54.46,1.524 56.475,-0.491 58.959,-0.491 C61.202,-0.491 63.046,1.153 63.387,3.297 C79.305,10.227 90.457,26.038 90.457,44.506 C90.457,69.357 70.312,89.503 45.459,89.503 L45.459,89.503 Z M76.058,46.306 C74.07,46.306 72.459,44.696 72.459,42.707 C72.459,41.378 73.188,40.23 74.258,39.606 L74.258,24.708 L76.058,24.708 L77.859,24.708 L79.729,24.708 C76.976,19.977 73.258,15.879 68.86,12.654 L68.86,39.107 L66.318,39.107 C65.734,39.615 65.068,40.197 64.34,40.83 L70.865,47.899 L70.594,48.106 L70.658,48.106 L70.658,53.506 L72.958,53.506 C73.58,52.434 74.728,51.706 76.057,51.706 C78.045,51.706 79.658,53.318 79.658,55.307 C79.658,57.294 78.046,58.907 76.057,58.907 C74.728,58.907 73.58,58.178 72.958,57.107 L70.658,57.107 L70.658,63.275 L76.256,69.338 C81.745,62.547 85.058,53.923 85.058,44.507 C85.058,38.724 83.792,33.25 81.56,28.308 L77.858,28.308 L77.858,39.606 C78.93,40.231 79.658,41.378 79.658,42.707 C79.658,44.695 78.046,46.306 76.058,46.306 L76.058,46.306 Z M45.459,4.908 C44.245,4.908 43.047,4.984 41.861,5.091 L41.861,16.477 L46.277,21.261 C46.591,21.171 46.917,21.108 47.259,21.108 C49.247,21.108 50.86,22.72 50.86,24.709 C50.86,26.697 49.248,28.309 47.259,28.309 C45.27,28.309 43.66,26.697 43.66,24.709 C43.66,24.414 43.704,24.13 43.771,23.856 L41.236,21.108 L39.318,21.108 L32.968,26.644 L37.828,31.907 L38.259,31.907 L38.259,32.375 L38.277,32.395 L38.259,32.411 L38.259,55.308 L56.76,55.308 C57.382,54.235 58.53,53.507 59.859,53.507 C61.847,53.507 63.46,55.119 63.46,57.108 C63.46,59.097 61.848,60.707 59.859,60.707 C58.53,60.707 57.382,59.978 56.76,58.908 L38.261,58.908 L36.461,58.908 L34.661,58.908 L34.661,33.782 L18.152,15.899 C17.152,16.852 16.21,17.862 15.313,18.914 L30.63,35.507 L31.061,35.507 L31.061,35.974 L31.079,35.994 L31.061,36.01 L31.061,57.107 L31.061,60.706 L27.462,60.706 L18.462,60.706 L16.664,60.706 L14.864,60.706 L14.864,51.707 L6.537,51.707 C9.281,66.602 20.36,78.564 34.766,82.603 L32.741,87.652 C14.088,82.158 0.464,64.936 0.464,44.507 C0.464,19.655 20.61,-0.49 45.46,-0.49 C47.907,-0.49 50.291,-0.242 52.632,0.134 L50.57,5.276 C48.893,5.06 47.196,4.908 45.459,4.908 L45.459,4.908 Z M13.068,21.79 C8.534,28.215 5.862,36.041 5.862,44.507 C5.862,45.721 5.925,46.919 6.033,48.106 L18.461,48.106 L18.461,49.907 L18.461,51.707 L18.461,57.107 L27.461,57.107 L27.461,37.382 L21.834,31.287 L16.603,38.532 C16.634,38.72 16.663,38.91 16.663,39.107 C16.663,41.095 15.051,42.707 13.063,42.707 C11.075,42.707 9.463,41.095 9.463,39.107 C9.463,37.119 11.075,35.507 13.063,35.507 C13.464,35.507 13.842,35.588 14.202,35.709 L19.344,28.589 L13.068,21.79 L13.068,21.79 Z M38.261,5.594 C31.764,6.789 25.843,9.592 20.872,13.536 L30.528,23.997 L38.261,17.255 L38.261,5.594 L38.261,5.594 Z" id="Shape" sketch:type="MSShapeGroup"></path>
        </g>
    </g>
</svg>