<?xml version="1.0" encoding="UTF-8" standalone="no"?>
<svg width="100px" height="68px" viewBox="0 0 100 68" version="1.1" xmlns="http://www.w3.org/2000/svg" xmlns:xlink="http://www.w3.org/1999/xlink" xmlns:sketch="http://www.bohemiancoding.com/sketch/ns">
    <title>Untitled 3</title>
    <description>Created with Sketch (http://www.bohemiancoding.com/sketch)</description>
    <defs></defs>
    <g id="Page-1" stroke="none" stroke-width="1" fill="none" fill-rule="evenodd" sketch:type="MSPage">
        <g id="icon_1051" sketch:type="MSLayerGroup" transform="translate(0.000000, 1.000000)" fill="#FFFFFF">
            <path d="M76,35 L76,46.665 L50.854,61.69 L25,46.665 L25,35 L51.007,47.873 L76,35 Z" id="Shape" sketch:type="MSShapeGroup"></path>
            <path d="M50.976,44.713 L99.601,20.468 L50.975,-0.055 L0.991,20.468 L11.9,25.76 C11.652,32.043 10.97,44.296 10.178,48.258 C9.523,51.535 6.353,56.205 0.416,62.138 C0.188,62.367 -0.101,62.705 0.029,63.017 C0.165,63.346 0.647,63.346 0.806,63.346 C2.34,63.346 6.521,61.93 8.694,60.483 C9.012,60.27 9.302,60.163 9.556,60.163 C10.509,60.163 11.063,61.732 11.599,63.25 C12.108,64.691 12.588,66.053 13.468,66.493 C13.601,66.559 13.738,66.593 13.876,66.593 C14.183,66.593 14.473,66.43 14.757,66.108 C16.377,64.273 17.602,56.958 16.766,50.275 C16.004,44.179 16.387,33.789 16.975,28.223 L50.976,44.713 L50.976,44.713 Z M50.324,10.165 C52.567,10.165 54.393,11.991 54.393,14.235 C54.393,16.479 52.567,18.304 50.324,18.304 C48.081,18.304 46.256,16.479 46.256,14.235 C46.256,11.991 48.081,10.165 50.324,10.165 L50.324,10.165 Z" id="Shape" sketch:type="MSShapeGroup"></path>
        </g>
    </g>
</svg>