<?xml version="1.0" encoding="UTF-8" standalone="no"?>
<svg width="75px" height="69px" viewBox="0 0 75 69" version="1.1" xmlns="http://www.w3.org/2000/svg" xmlns:xlink="http://www.w3.org/1999/xlink" xmlns:sketch="http://www.bohemiancoding.com/sketch/ns">
    <title>Untitled 2</title>
    <description>Created with Sketch (http://www.bohemiancoding.com/sketch)</description>
    <defs></defs>
    <g id="Page-1" stroke="none" stroke-width="1" fill="none" fill-rule="evenodd" sketch:type="MSPage">
        <g id="icon_16925" sketch:type="MSLayerGroup" fill="#FFFFFF">
            <g id="Your_Icon" sketch:type="MSShapeGroup">
                <g id="Group">
                    <rect id="Rectangle" x="39" y="38" width="12" height="31"></rect>
                    <rect id="Rectangle" x="14" y="38" width="6" height="31"></rect>
                    <path d="M62.40675,0.0197097682 L62.42025,0 L12.57975,0 L12.58875,0.0197097682 C5.6025,0.230452675 0,6.00693091 0,13.1206411 C0,19.9667533 5.18775,25.5802469 11.80575,26.1813948 C14.28075,26.1745722 19.839,25.4945852 20.058,19.7340264 C20.1945,16.1362357 17.4105,13.0986571 13.85175,12.9614468 L13.99125,9.26662335 C16.69275,9.37047867 19.191,10.5310808 21.027,12.5354126 C22.863,14.5389864 23.81775,17.1459822 23.71425,19.8750271 C23.508,25.2974875 19.863,28.9430366 14.178,29.7215724 L14.178,35 L60.825,35 L60.825,29.7882824 C58.60425,29.5259909 56.6325,28.8278103 55.03725,27.7119342 C52.47975,25.926684 51.06225,23.2272038 50.937,19.9045917 C50.83275,17.1755469 51.7875,14.5693091 53.62575,12.5664934 C55.46025,10.5614035 57.95925,9.40080139 60.65925,9.29770414 L60.7995,12.9932857 C59.076,13.0584795 57.4815,13.79987 56.30925,15.0794888 C55.13775,16.3591076 54.52875,18.0223089 54.594,19.7643491 C54.67425,21.9066493 55.524,23.5569634 57.1185,24.6720814 C58.5195,25.6507472 60.4965,26.1791206 62.718,26.2064111 C69.55875,25.837232 75,20.1289799 75,13.1206411 C75,6.00617284 69.396,0.228178471 62.40675,0.0197097682 L62.40675,0.0197097682 Z" id="Shape"></path>
                    <rect id="Rectangle" x="55" y="38" width="6" height="31"></rect>
                    <rect id="Rectangle" x="24" y="38" width="12" height="31"></rect>
                </g>
            </g>
        </g>
    </g>
</svg>