<?xml version="1.0" encoding="UTF-8" standalone="no"?>
<svg width="69px" height="61px" viewBox="0 0 69 61" version="1.1" xmlns="http://www.w3.org/2000/svg" xmlns:xlink="http://www.w3.org/1999/xlink" xmlns:sketch="http://www.bohemiancoding.com/sketch/ns">
    <title>Untitled</title>
    <description>Created with Sketch (http://www.bohemiancoding.com/sketch)</description>
    <defs></defs>
    <g id="Page-1" stroke="none" stroke-width="1" fill="none" fill-rule="evenodd" sketch:type="MSPage">
        <g id="icon_66582" sketch:type="MSLayerGroup" fill="#FFFFFF">
            <g id="XMLID_25_" sketch:type="MSShapeGroup">
                <g id="XMLID_26_">
                    <path d="M13.8,48.5 C13.8,42.5 15.8,35.9 19.1,30.8 C20.7,28.4 22.4,26.5 24.4,25 C22.5,23.7 20.4,23 18.6,23 C12.5,23.1 4,31 4,43.8 C4,45.4 4.5,46.7 5.7,47.8 C7.3,49.3 10.5,50.3 14.1,50.7 C13.9,50 13.8,49.3 13.8,48.5 L13.8,48.5 Z M25.6,12.7 C25.6,17.4 29.4,21.2 34.1,21.2 C38.8,21.2 42.6,17.4 42.6,12.7 C42.6,8 38.8,4.2 34.1,4.2 C29.4,4.3 25.6,8.1 25.6,12.7 L25.6,12.7 Z M15.9,54.7 C10.7,54.4 5.8,53 3.2,50.4 C1.4,48.6 0.4,46.4 0.4,43.8 C0.4,38.4 2.2,32.4 5.2,27.8 C6.7,25.5 8.4,23.7 10.3,22.3 C10.6,22 10.7,21.6 10.8,21.2 C10.9,20.6 10.7,19.9 10.3,19.4 C8.5,17.4 7.3,14.7 7.3,11.7 C7.3,5.4 12.4,0.3 18.7,0.3 C21.6,0.3 24.2,1.4 26.2,3.2 C28.4,1.4 31.1,0.4 34.1,0.4 C37.3,0.4 40.2,1.6 42.4,3.5 C44.4,1.5 47.2,0.3 50.3,0.3 C56.6,0.3 61.7,5.4 61.7,11.7 C61.7,14.6 60.6,17.3 58.7,19.4 C58.3,20 58.2,20.6 58.2,21.2 C58.3,21.6 58.4,22 58.7,22.3 C60.6,23.7 62.3,25.5 63.8,27.8 C66.8,32.4 68.6,38.4 68.6,43.8 C68.6,46.4 67.5,48.6 65.8,50.4 C63.4,52.9 58,54.4 52.3,54.7 C52,55.1 51.7,55.5 51.3,55.9 C45.6,61.9 23.9,62.7 16.9,55.9 C16.5,55.5 16.2,55.1 15.9,54.7 L15.9,54.7 Z M63.3,47.8 C64.4,46.7 65,45.4 65,43.8 C65,31 56.4,23.1 50.3,23.1 C48.4,23.1 46.2,23.9 44.1,25.3 C45.9,26.7 47.5,28.6 49,30.8 C52.3,35.9 54.3,42.5 54.3,48.5 C54.3,49.3 54.2,50.1 54.1,50.7 C58.1,50.4 61.6,49.4 63.3,47.8 L63.3,47.8 Z M56.6,16.2 C57.5,14.9 58.1,13.4 58.1,11.7 C58.1,7.4 54.6,3.9 50.3,3.9 C48.1,3.9 46.2,4.8 44.8,6.2 C46,8.2 46.7,10.5 46.7,12.9 C46.7,14.7 46.3,16.3 45.7,17.9 C47,18.9 48.6,19.4 50.3,19.4 C52.5,19.4 54.5,18.5 55.9,17 C56.1,16.8 56.3,16.5 56.6,16.2 L56.6,16.2 Z M50,51 C50.3,50.3 50.5,49.5 50.5,48.6 C50.5,38.9 46.1,31.8 41.1,28.2 C40.1,27.4 39,26.8 37.9,26.4 C36.6,25.9 35.4,25.6 34.2,25.6 C33.2,25.6 32.1,25.8 31.1,26.2 C30,26.6 28.9,27.1 27.8,27.9 C22.7,31.3 18,38.6 18,48.6 C18,49.5 18.2,50.3 18.5,51 C18.8,51.8 19.3,52.4 19.9,53 C20.6,53.6 21.5,54.2 22.6,54.6 C28.6,57.1 40.2,57.1 46.2,54.6 C47.3,54.1 48.1,53.6 48.8,53 C49.2,52.4 49.7,51.7 50,51 L50,51 Z M21.5,13 C21.5,10.3 22.3,7.9 23.7,5.9 C22.3,4.7 20.6,4 18.6,4 C14.3,4 10.8,7.5 10.8,11.8 C10.8,13.5 11.3,15 12.3,16.3 C12.6,16.6 12.8,16.9 13,17.2 C14.4,18.7 16.4,19.6 18.6,19.6 C20.1,19.6 21.5,19.2 22.6,18.4 C21.9,16.7 21.5,14.9 21.5,13 L21.5,13 Z" id="Shape"></path>
                </g>
            </g>
        </g>
    </g>
</svg>