<?xml version="1.0" encoding="UTF-8" standalone="no"?>
<svg width="114px" height="78px" viewBox="0 0 114 78" version="1.1" xmlns="http://www.w3.org/2000/svg" xmlns:xlink="http://www.w3.org/1999/xlink" xmlns:sketch="http://www.bohemiancoding.com/sketch/ns">
    <title>Untitled 2</title>
    <description>Created with Sketch (http://www.bohemiancoding.com/sketch)</description>
    <defs></defs>
    <g id="Page-1" stroke="none" stroke-width="1" fill="none" fill-rule="evenodd" sketch:type="MSPage">
        <g id="icon_8856" sketch:type="MSLayerGroup" fill="#FFFFFF">
            <path d="M91.199065,29.6756044 C90.8577451,29.2024817 90.9668267,28.5386977 91.4383409,28.1997441 C91.9137257,27.8572598 92.5717343,27.9667135 92.9127024,28.4398362 C93.6234924,29.4355123 94,30.5724191 94,31.7375719 C94,32.3769937 93.8803621,33.0231239 93.6621988,33.6018165 C93.5531172,33.8948701 93.4088479,34.1985161 93.2329098,34.4919227 C93.0323403,34.8167532 92.6836309,35 92.3285878,35 C92.1420934,35 91.9520802,34.9505693 91.7796608,34.8449994 C91.2835153,34.5413535 91.125171,33.8881617 91.4277846,33.3903236 C91.5333475,33.2173161 91.6177978,33.0407778 91.6811355,32.8607087 C91.8183672,32.5037482 91.8887425,32.1227785 91.8887425,31.7375719 C91.8887425,31.0208264 91.6494666,30.3076116 91.199065,29.6756044 L91.199065,29.6756044 Z M29,44 C28.4466667,44 28,44.4965517 28,45.1034483 L28,50.8965517 C28,51.5034483 28.4466667,52 29,52 C29.5533333,52 30,51.5034483 30,50.8965517 L30,45.1034483 C30,44.4961839 29.5533333,44 29,44 L29,44 Z M30,36.0714286 C30,35.4789286 29.5214286,35 28.9285714,35 L26.0714286,35 C25.4785714,35 25,35.4789286 25,36.0714286 C25,36.6642857 25.4785714,37.1428571 26.0714286,37.1428571 L27.8571429,37.1428571 L27.8571429,38.9285714 C27.8571429,39.5214286 28.3357143,40 28.9285714,40 C29.5214286,40 30,39.5214286 30,38.9285714 L30,36.0714286 L30,36.0714286 Z M58.6873533,2.00548292 C59.2772953,2.20443136 59.8099517,2.51314447 60.2689071,2.9144715 L62.3392319,4.74959937 C62.5271691,4.91767651 62.7613369,5 62.9958397,5 C63.2772431,5 63.5552964,4.87994491 63.7566338,4.64326486 C64.1184381,4.21449667 64.0712025,3.56276901 63.6524475,3.19231329 L61.5791078,1.35375526 C60.9157999,0.774060664 60.1586908,0.338432177 59.3245309,0.0537300956 C58.7985746,-0.128067619 58.2290678,0.166924899 58.0515157,0.705457753 C57.8766436,1.24399061 58.161397,1.82711535 58.6873533,2.00548292 L58.6873533,2.00548292 Z M84.1127525,12.1763525 L84.1127525,15.9837821 C84.1127525,16.542702 84.5376977,17 85.0563762,17 C85.5785147,17 86,16.542702 86,15.9837821 L86,12.1763525 C86,11.7156671 85.9559642,11.2549817 85.8678927,10.8044584 C85.7578032,10.2557008 85.2579972,9.90679929 84.7481258,10.0219706 C84.238569,10.1405294 83.9114461,10.6791249 84.021221,11.2278825 C84.0812984,11.5395227 84.1127525,11.8579376 84.1127525,12.1763525 L84.1127525,12.1763525 Z M42.04569,13 C42.2901533,13 42.5346167,12.9081354 42.7336797,12.7205785 L46.6384582,9.01920072 C47.075,8.60198233 47.1238926,7.87854862 46.7432283,7.39625947 C46.3660562,6.91779802 45.7025128,6.86421034 45.265971,7.28142873 L41.3615418,10.9828065 C40.925,11.4000249 40.8761074,12.1234586 41.2567717,12.6019201 C41.4624702,12.8660308 41.7523339,13 42.04569,13 L42.04569,13 Z M77.0289391,8.3255814 L79.4507187,8.3255814 C80.1744059,8.3255814 80.8672249,8.51162791 81.5085969,8.87596899 C81.6560782,8.96124031 81.8138489,9 81.9681897,9 C82.3454674,9 82.7090259,8.76356589 82.8908051,8.36046512 C83.1442671,7.78682171 82.9419091,7.08527132 82.4346421,6.79844961 C81.5013944,6.26744186 80.4968068,6 79.4507187,6 L77.0289391,6 C76.4599358,6 76,6.51937984 76,7.1627907 C76,7.80232558 76.4599358,8.3255814 77.0289391,8.3255814 L77.0289391,8.3255814 Z M20.7473931,34.4901224 C20.9419725,34.817373 21.285961,35 21.6400259,35 C21.8241813,35 22.0086842,34.9542553 22.1751191,34.8486906 C22.6685167,34.5495905 22.8283497,33.9024788 22.5330061,33.4024539 C22.4322417,33.2339023 22.3488506,33.0544423 22.279358,32.8609069 C22.1546187,32.5301375 22.0847786,32.1532714 22.0847786,31.7771092 C22.0847786,31.0451938 22.3314774,30.3199642 22.797078,29.6834089 C23.1375919,29.2118865 23.0403022,28.5503476 22.5747016,28.2055029 C22.1125757,27.8606582 21.459345,27.9591852 21.1188312,28.4307076 C20.3891587,29.4339243 20,30.5916174 20,31.7774611 C20,32.4073305 20.1146628,33.0442377 20.3266153,33.6002118 C20.4343289,33.9059976 20.5767888,34.2050977 20.7473931,34.4901224 L20.7473931,34.4901224 Z M68.377123,9.74308923 C68.5616871,9.91201686 68.7965868,10 69.038198,10 C69.0818222,10 69.1291377,9.99648067 69.1757821,9.99296135 C69.4610175,9.95072944 69.7194072,9.78180182 69.8771256,9.52489105 C70.2798109,8.8843738 70.8338387,8.35295564 71.4781351,7.98342645 C71.9643776,7.70188041 72.1422302,7.06136315 71.8771291,6.55106095 C71.6086723,6.03723942 70.9979329,5.85071516 70.5113549,6.12874188 C69.914374,6.47363579 69.3707489,6.91355148 68.9043051,7.42737301 L67.666048,6.30470816 C67.2465841,5.924621 66.6089991,5.97037223 66.2465824,6.41380725 C65.88081,6.85372295 65.9281255,7.51887548 66.3475893,7.90248196 L68.377123,9.74308923 L68.377123,9.74308923 Z M86.1428571,37.1428571 L87.9285714,37.1428571 C88.5214286,37.1428571 89,36.6642857 89,36.0714286 C89,35.4789286 88.5214286,35 87.9285714,35 L85.0714286,35 C84.4825,35 84,35.4789286 84,36.0714286 L84,38.9285714 C84,39.5214286 84.4825,40 85.0714286,40 C85.6642857,40 86.1428571,39.5214286 86.1428571,38.9285714 L86.1428571,37.1428571 L86.1428571,37.1428571 Z M85.9936923,22.0810811 C85.9936923,21.4828829 85.5484343,21 84.9968461,21 C84.448913,21 84,21.4828829 84,22.0810811 L84,22.8774775 C84,22.9747748 84.0132913,23.0720721 84.036551,23.1657658 C84.086061,23.363964 84.202692,23.6414414 84.3056995,23.8252252 C84.3588646,23.9153153 84.4223305,23.9945946 84.4984231,24.0666667 L87.3527258,26.7405405 C87.5391361,26.9135135 87.7717335,27 88.0039986,27 C88.2834478,27 88.5592419,26.8738739 88.7586112,26.6291892 C89.1174758,26.1747748 89.070624,25.4940541 88.6552714,25.1012613 L85.9936923,22.6111712 L85.9936923,22.0810811 L85.9936923,22.0810811 Z M34.04676,20 C34.2912578,20 34.5357557,19.9081354 34.7313539,19.7205785 L38.6398265,16.015373 C39.0764297,15.6019823 39.1218365,14.8785486 38.7446112,14.3962595 C38.367386,13.917798 37.7040983,13.8642103 37.267495,14.2814287 L33.3621661,17.9828065 C32.9255628,18.4000249 32.8766632,19.1234586 33.2538885,19.6019201 C33.463458,19.8660308 33.7533626,20 34.04676,20 L34.04676,20 Z M50.038257,7 C50.2762487,7 50.5183855,6.906698 50.7152727,6.71620642 L53.7549353,3.75775559 C53.9794558,3.54005093 54.2247013,3.34567177 54.4806547,3.17461811 C54.9777086,2.85583629 55.147308,2.14052097 54.8606126,1.58459657 C54.5739171,1.02478459 53.9418055,0.834293011 53.4444061,1.15696242 C53.0748108,1.39799258 52.7221408,1.67789857 52.4009038,1.99279281 L49.357787,4.95124364 C48.9260168,5.37499021 48.8773131,6.10974344 49.2538168,6.59957893 C49.4583032,6.86393459 49.7481073,7 50.038257,7 L50.038257,7 Z M26.0477495,27 C26.2922118,27 26.5331817,26.9081329 26.7322438,26.7209536 L30.6366551,23.0152638 C31.0766872,22.6018618 31.1220873,21.8749632 30.7452662,21.3964886 C30.3680959,20.9180141 29.7045555,20.8640421 29.2680158,21.281272 L25.3636045,24.983134 C24.9232232,25.3961532 24.8778231,26.1234346 25.2549934,26.6019092 C25.4610401,26.8660271 25.7547441,27 26.0477495,27 L26.0477495,27 Z M85,44 C84.4503333,44 84,44.4931003 84,45.1039558 L84,50.8960442 C84,51.5068997 84.4503333,52 85,52 C85.5533333,52 86,51.5068997 86,50.8960442 L86,45.1039558 C86,44.4927323 85.5533333,44 85,44 L85,44 Z M112.674101,70.1355351 L112.666557,70.1278986 C112.495566,69.9544419 112.138497,69.6791656 112.01205,69.5817098 C111.984389,69.560255 111.967506,69.5475275 111.966428,69.546073 L95.1762597,55.5531656 C93.6495541,54.2844219 90.7865322,53.2371357 88.8107957,53.2294993 L85.1822656,53.2149536 L84.0471152,53.2113172 L84.0471152,60.9928719 C84.0471152,63.6983613 81.8669797,65.8983897 79.2015314,65.8983897 L34.8803718,65.8983897 C32.2149236,65.8983897 30.0347881,63.6983613 30.0347881,60.9928719 L30.0347881,53.0182238 L28.8996376,53.0145874 L25.3109816,53.0000418 C23.335245,52.9924053 20.4722231,54.0327823 18.9527021,55.3127988 C18.9527021,55.3127988 1.40456909,69.9093504 1.02379077,70.3893566 C0.381137545,71.1930033 0,72.2148346 0,73.3235762 C0,75.9057912 2.06913502,78 4.62322357,78 L109.445029,78 C111.959603,78 114,75.9345189 114,73.3890315 C113.999641,72.1173788 113.493134,70.9682731 112.674101,70.1355351 L112.674101,70.1355351 Z" id="Shape" sketch:type="MSShapeGroup"></path>
        </g>
    </g>
</svg>