<?xml version="1.0" encoding="UTF-8" standalone="no"?>
<svg width="98px" height="82px" viewBox="0 0 98 82" version="1.1" xmlns="http://www.w3.org/2000/svg" xmlns:xlink="http://www.w3.org/1999/xlink" xmlns:sketch="http://www.bohemiancoding.com/sketch/ns">
    <title>legal</title>
    <description>Created with Sketch (http://www.bohemiancoding.com/sketch)</description>
    <defs></defs>
    <g id="Page-1" stroke="none" stroke-width="1" fill="none" fill-rule="evenodd" sketch:type="MSPage">
        <g id="icon_22202" sketch:type="MSLayerGroup" transform="translate(1.000000, 1.000000)" fill="#FFFFFF">
            <path d="M65.136,45.302 C65.136,53.284 72.067,59.777 80.584,59.777 C89.1,59.777 96.028,53.285 96.028,45.302 L94.831,44.103 L82.561,19.554 C83.015,19.185 83.409,18.748 83.663,18.219 C83.973,17.701 84.057,17.24 84.025,16.849 C84.034,16.737 84.038,16.621 84.037,16.503 C84.016,14.371 82.266,12.636 80.086,12.636 C79.044,12.648 78.066,13.065 77.338,13.811 C77.084,14.071 76.872,14.359 76.7,14.668 C76.573,14.549 76.445,14.433 76.322,14.318 L76.194,14.2 C75.211,13.295 74.35,12.455 73.561,11.685 C70.24,8.447 67.84,6.106 63.037,5.469 C62.391,5.383 61.739,5.339 61.101,5.339 C58.176,5.339 55.946,6.226 54.156,6.94 C53.202,7.32 52.379,7.648 51.776,7.698 C51.399,7.73 51.061,7.758 50.76,7.781 C50.728,7.719 50.694,7.659 50.657,7.6 C50.82,7.039 50.858,6.374 50.68,5.628 C50.475,4.796 49.8,1.164 49.558,-0.165 L45.625,-0.125 C45.41,1.205 44.813,4.837 44.625,5.69 C44.466,6.435 44.522,7.099 44.699,7.66 C44.663,7.722 44.629,7.785 44.596,7.849 C44.295,7.832 43.958,7.812 43.581,7.787 C42.979,7.751 42.145,7.441 41.18,7.081 C39.449,6.436 37.294,5.634 34.527,5.634 C33.783,5.634 33.026,5.694 32.275,5.811 C27.489,6.558 25.145,8.948 21.899,12.255 C21.127,13.043 20.281,13.904 19.313,14.836 C19.137,15.007 18.97,15.166 18.812,15.315 C18.129,14.148 16.855,13.359 15.386,13.359 C14.344,13.371 13.368,13.79 12.639,14.538 C11.909,15.285 11.515,16.27 11.527,17.312 C11.528,17.423 11.534,17.532 11.544,17.641 C11.519,18.036 11.612,18.502 11.94,19.018 C12.196,19.535 12.596,19.96 13.054,20.318 L1.161,44.111 L-0.028,45.301 C-0.028,53.283 6.899,59.776 15.416,59.776 C23.935,59.776 30.866,53.284 30.866,45.301 L29.675,44.11 L18.185,21.138 C20.472,20.41 22.783,18.611 25.034,16.846 C25.746,16.288 26.436,15.746 27.084,15.278 C29.014,13.884 30.056,13.697 30.821,13.697 C31.835,13.697 32.969,14.077 34.707,14.78 C37.62,15.955 40.056,16.13 41.249,16.13 C41.669,16.13 41.969,16.11 42.128,16.095 L44.191,16.073 C43.924,16.524 43.713,17.101 43.595,17.837 C43.168,18.309 43.028,18.816 42.982,19.082 C42.85,19.865 43.107,20.52 43.422,20.999 L43.695,45.386 C42.942,46.117 42.808,46.925 42.807,47.399 C42.806,47.905 42.948,48.369 43.173,48.779 L42.922,49.521 C42.914,49.608 42.096,58.691 41.575,62.772 C41.126,66.218 41.308,69 41.62,70 L18.277,70 L16.443,70.714 L13.378,77.549 L15.212,80 L82.041,80 L83,80.12 L83,80.163 L84.342,77.384 L81.047,70.716 L78.979,70 L55.081,70 C55.374,67 55.545,66.166 55.009,62.621 C54.387,58.551 53.387,49.74 53.377,49.654 L53.106,48.789 C53.324,48.375 53.453,47.846 53.441,47.339 C53.428,46.865 53.275,46.034 52.509,45.32 L52.234,20.914 C52.538,20.43 52.778,19.764 52.631,18.987 C52.578,18.72 52.429,18.213 51.991,17.75 C51.855,17.016 51.631,16.44 51.351,15.995 L53.417,15.971 C54.071,16.018 57.078,16.091 60.813,14.489 C62.575,13.729 63.726,13.317 64.756,13.317 C65.502,13.317 66.522,13.495 68.441,14.815 C69.105,15.273 69.812,15.803 70.543,16.349 C73.027,18.207 75.581,20.107 78.069,20.627 L66.326,44.11 L65.136,45.302 L65.136,45.302 Z M89.973,44 L71.189,44 L80.584,25.215 L89.973,44 L89.973,44 Z M15.416,25.214 L24.811,44 L6.023,44 L15.416,25.214 L15.416,25.214 Z" id="Shape" sketch:type="MSShapeGroup"></path>
        </g>
    </g>
</svg>