<?xml version="1.0" encoding="UTF-8" standalone="no"?>
<svg width="40px" height="100px" viewBox="0 0 40 100" version="1.1" xmlns="http://www.w3.org/2000/svg" xmlns:xlink="http://www.w3.org/1999/xlink" xmlns:sketch="http://www.bohemiancoding.com/sketch/ns">
    <title>Untitled 3</title>
    <description>Created with Sketch (http://www.bohemiancoding.com/sketch)</description>
    <defs></defs>
    <g id="Page-1" stroke="none" stroke-width="1" fill="none" fill-rule="evenodd" sketch:type="MSPage">
        <g id="icon_2329" sketch:type="MSLayerGroup" transform="translate(1.000000, 0.000000)" fill="#FFFFFF">
            <path d="M3.92,41.727 L3.92,81.325 L3.92,85.371 C3.92,93.269 10.38,99.734 18.283,99.734 L19.479,99.734 C27.376,99.734 33.836,93.268 33.836,85.371 L33.836,81.325 L33.836,75.441 L15.116,75.441 C14.124,75.441 13.323,74.639 13.323,73.646 C13.323,72.656 14.124,71.855 15.116,71.855 L33.836,71.855 L33.836,66.541 L20.246,66.541 C19.254,66.541 18.453,65.735 18.453,64.744 C18.453,63.754 19.254,62.951 20.246,62.951 L33.837,62.951 L33.837,57.639 L15.117,57.639 C14.125,57.639 13.324,56.832 13.324,55.84 C13.324,54.85 14.125,54.048 15.117,54.048 L33.837,54.048 L33.837,48.735 L20.246,48.735 C19.254,48.735 18.453,47.929 18.453,46.937 C18.453,45.95 19.254,45.144 20.246,45.144 L33.837,45.144 L33.837,41.729 L33.837,36.234 L3.92,36.234 L3.92,41.727 L3.92,41.727 Z" id="Shape" sketch:type="MSShapeGroup"></path>
            <path d="M35.635,25.024 L34.097,25.024 L3.659,25.024 L2.122,25.024 C0.81,25.024 -0.271,26.1 -0.271,27.416 L-0.271,29.052 C-0.271,30.158 0.504,31.051 1.525,31.325 C1.72,31.375 1.911,31.446 2.122,31.446 L3.92,31.446 L33.837,31.446 L35.635,31.446 C35.845,31.446 36.035,31.377 36.231,31.325 C37.252,31.05 38.027,30.158 38.027,29.052 L38.027,27.416 C38.027,26.1 36.951,25.024 35.635,25.024 L35.635,25.024 Z" id="Shape" sketch:type="MSShapeGroup"></path>
            <path d="M25.398,19.311 C28.867,19.18 31.574,16.263 31.443,12.795 C31.312,9.327 28.393,6.623 24.924,6.756 C21.459,6.885 18.753,9.8 18.882,13.269 C19.013,16.735 21.934,19.44 25.398,19.311 L25.398,19.311 Z" id="Shape" sketch:type="MSShapeGroup"></path>
            <circle id="Oval" sketch:type="MSShapeGroup" cx="13.217" cy="4.217" r="4.217"></circle>
            <path d="M9.139,19.115 C10.657,19.115 11.894,17.883 11.894,16.36 C11.894,14.838 10.657,13.601 9.139,13.601 C7.616,13.601 6.378,14.838 6.378,16.36 C6.378,17.882 7.615,19.115 9.139,19.115 L9.139,19.115 Z" id="Shape" sketch:type="MSShapeGroup"></path>
        </g>
    </g>
</svg>