<?xml version="1.0" encoding="UTF-8" standalone="no"?>
<svg width="92px" height="100px" viewBox="0 0 92 100" version="1.1" xmlns="http://www.w3.org/2000/svg" xmlns:xlink="http://www.w3.org/1999/xlink" xmlns:sketch="http://www.bohemiancoding.com/sketch/ns">
    <title>Untitled</title>
    <description>Created with Sketch (http://www.bohemiancoding.com/sketch)</description>
    <defs></defs>
    <g id="Page-1" stroke="none" stroke-width="1" fill="none" fill-rule="evenodd" sketch:type="MSPage">
        <g id="climate" sketch:type="MSLayerGroup" fill="#FFFFFF">
            <path d="M81.502,59.479 C67.056,76.822 52.063,66.972 47.17,62.936 C50.942,58.815 52.675,56.575 59.224,51.178 C65.995,53.945 78.111,48.691 78.111,48.691 C69.96,50.827 63.729,49.616 61.516,49.03 C61.991,48.659 70.032,42.839 72.466,39.473 C79.197,39.681 84.757,33.9 84.757,33.9 C84.575,33.744 81.17,36.354 74.732,36.667 C81.398,26.875 81.099,17.865 81.099,17.865 C81.099,17.865 78.638,26.088 72.375,35.104 C71.092,28.705 72.727,24.349 72.544,24.206 C72.544,24.206 68.182,31.393 70.193,38.001 C66.769,41.914 61.372,45.293 59.38,46.809 C59.224,46.399 57.141,39.57 59.165,29.485 C59.165,29.485 53.677,42.167 57.114,48.742 C52.909,51.978 51.782,52.772 44.758,60.623 C28.853,48.716 42.509,27.42 54.419,22.459 C66.672,17.35 71.776,18.379 83.006,0 C95.304,18.216 93.287,45.338 81.502,59.479 L81.502,59.479 Z" id="Shape" sketch:type="MSShapeGroup"></path>
            <path d="M13.623,57.629 C20.859,60.937 25.875,65.429 29.322,69.726 C29.364,69.602 29.417,69.498 29.456,69.355 C36.005,45.781 0,49.062 0,49.062 C0,49.062 4.974,56.718 7.747,65.065 C10.954,74.739 24.059,82.779 28.769,71.289 C25.368,66.711 20.504,61.705 13.623,57.629 L13.623,57.629 Z" id="Shape" sketch:type="MSShapeGroup"></path>
            <path d="M47.17,62.936 C47.128,62.883 44.683,60.696 44.722,60.644 C38.55,67.441 36.144,73.248 35.558,80.65 C34.624,78.105 32.756,74.029 29.321,69.726 C29.158,70.292 28.969,70.8 28.768,71.288 C32.427,76.216 33.843,82.929 34.676,85.129 C34.676,91.275 35.35,94.348 35.89,99.478 C35.89,99.478 39.198,101.431 40.119,97.786 C38.251,94.699 36.418,73.456 47.17,62.936 L47.17,62.936 Z" id="Shape" sketch:type="MSShapeGroup"></path>
        </g>
    </g>
</svg>