<?xml version="1.0" standalone="no"?><!DOCTYPE svg PUBLIC "-//W3C//DTD SVG 1.1//EN" "http://www.w3.org/Graphics/SVG/1.1/DTD/svg11.dtd"><svg width="100%" height="100%" viewBox="0 0 762 916" version="1.1" xmlns="http://www.w3.org/2000/svg" xmlns:xlink="http://www.w3.org/1999/xlink" xml:space="preserve" style="fill-rule:evenodd;clip-rule:evenodd;stroke-linejoin:round;stroke-miterlimit:1.41421;"><g><clipPath id="tag1"><path d="M402.417,779.167l-19.084,0l0,137.5l79.084,0l0,-17.736l-60,0l0,-119.764ZM553.736,779.167l-13.653,0l-57.889,137.5l19.764,0l17,-40.278l57.306,0l17.986,40.278l19.764,0l-60.278,-137.5ZM547.347,811.917l20.528,52.375l-39.542,0l19.014,-52.375ZM653.556,916.667l46.125,0c33.722,0 46.152,-19.75 46.152,-36.695c0,-18.541 -12.236,-32.055 -32.347,-35.889l0,-0.402c14,-5.834 20.514,-15.112 20.514,-29.431c0,-17.333 -12.417,-35.083 -41.403,-35.083l-39.041,0l0,137.5ZM673.333,798.819l17.028,0c17.014,0 22.514,8.473 22.514,18.292c0,14.056 -8.903,20.986 -27.25,20.986l-12.292,0l0,-39.278ZM673.333,857.75l23.125,0c20.181,0 29.598,9.417 29.598,22.694c0,10.931 -6.084,23.139 -28.612,23.139l-24.111,0l0,-45.833Z"/></clipPath><g clip-path="url({{site.baseurl}}#tag1)"><rect x="362.5" y="758.333" width="404.167" height="179.167" style="fill:#231f20;"/></g><clipPath id="tag2"><path d="M137.5,916.667l19.583,0l0,-137.5l-19.583,0l0,137.5ZM326.806,779.167l-17.75,0l-44.264,56.458l-44.084,-56.458l-17.93,0l0,137.5l19.111,0l0,-107.042l0.389,0l40.944,53.222l3.125,0l40.959,-53.222l0.375,0l0,107.042l19.125,0l0,-137.5Z"/></clipPath><g clip-path="url({{site.baseurl}}#tag2)"><rect x="116.667" y="758.333" width="230.972" height="179.167" style="fill:#a7166a;"/></g><clipPath id="tag3"><path d="M81.9444,788.597c-9.8333,-6.278 -20.5,-9.43 -31.1666,-9.43c-25.6389,0 -42.4445,13.958 -42.4445,35.75c0,36.736 60.4861,39.889 60.4861,67.583c0,7.458 -7.1805,16.889 -22.75,16.889c-13.75,0 -26.6666,-6.875 -36.9305,-19.458l0,24.361c11.6944,8.444 24,12.375 39.1667,12.375c22.5694,0 39.1944,-15.32 39.1944,-36.334c0,-42.625 -60.5139,-42.236 -60.5139,-67.958c0,-9.431 9.2361,-15.917 22.1528,-15.917c9.4305,0 20.9167,3.139 32.8055,13.945l0,-21.806Z"/></clipPath><g clip-path="url({{site.baseurl}}#tag3)"><rect x="-12.5" y="758.333" width="120.833" height="179.167" style="fill:#a7166a;"/></g><clipPath id="tag4"><path d="M0,60.4305l0,591.652c0,0 0,60.417 41.1806,60.417l679.652,0c49.125,0 41.181,-60.417 41.181,-60.417l0,-591.652c0,0 0,-60.4305 -41.181,-60.4305l-679.652,0c0,0 -41.1806,0 -41.1806,60.4305Z"/></clipPath><g clip-path="url({{site.baseurl}}#tag4)"><rect x="-20.8333" y="-20.8333" width="804.167" height="754.167" style="fill:#231f20;"/></g><clipPath id="tag5"><path d="M537.5,79.1667l0,498.264c0,0 0,68.402 68.931,68.402l24.625,0c0,0 68.944,0 68.944,-68.402l0,-498.264l-162.5,0Z"/></clipPath><g clip-path="url({{site.baseurl}}#tag5)"><rect x="516.667" y="58.3333" width="204.167" height="608.333" style="fill:#fff;"/></g><path d="M607.34,653.933l-0.427,0l-0.434,-0.003l-0.431,-0.004l-0.43,-0.006l-0.429,-0.008l-0.427,-0.009l-0.426,-0.011l-0.425,-0.012l-0.423,-0.014l-0.421,-0.016l-0.42,-0.018l-0.419,-0.019l-0.417,-0.02l-0.417,-0.023l-0.414,-0.024l-0.413,-0.025l-0.411,-0.028l-0.411,-0.028l-0.408,-0.031l-0.408,-0.032l-0.405,-0.033l-0.405,-0.036l-0.403,-0.036l-0.402,-0.039l-0.4,-0.04l-0.399,-0.041l-0.397,-0.043l-0.397,-0.045l-0.394,-0.046l-0.393,-0.048l-0.392,-0.049l-0.391,-0.051l-0.389,-0.052l-0.387,-0.054l-0.386,-0.055l-0.386,-0.057l-0.383,-0.059l-0.383,-0.06l-0.381,-0.061l-0.378,-0.063l-0.379,-0.065l-0.376,-0.066l-0.375,-0.067l-0.375,-0.069l-0.372,-0.07l-0.37,-0.072l-0.371,-0.073l-0.368,-0.075l-0.367,-0.076l-0.366,-0.078l-0.364,-0.079l-0.362,-0.08l-0.362,-0.082l-0.36,-0.084l-0.359,-0.085l-0.357,-0.086l-0.356,-0.087l-0.355,-0.09l-0.353,-0.09l-0.352,-0.092l-0.351,-0.093l-0.348,-0.095l-0.348,-0.096l-0.347,-0.097l-0.345,-0.099l-0.344,-0.1l-0.342,-0.101l-0.341,-0.103l-0.34,-0.104l-0.338,-0.106l-0.337,-0.106l-0.335,-0.108l-0.334,-0.11l-0.333,-0.111l-0.332,-0.112l-0.33,-0.113l-0.328,-0.114l-0.328,-0.116l-0.326,-0.118l-0.325,-0.118l-0.323,-0.12l-0.322,-0.121l-0.32,-0.122l-0.32,-0.123l-0.318,-0.125l-0.316,-0.126l-0.316,-0.127l-0.314,-0.129l-0.312,-0.129l-0.311,-0.131l-0.31,-0.132l-0.309,-0.133l-0.306,-0.134l-0.306,-0.136l-0.305,-0.137l-0.302,-0.138l-0.302,-0.139l-0.301,-0.14l-0.299,-0.142l-0.297,-0.142l-0.296,-0.144l-0.295,-0.144l-0.294,-0.146l-0.293,-0.147l-0.29,-0.148l-0.29,-0.149l-0.289,-0.151l-0.286,-0.151l-0.286,-0.152l-0.284,-0.154l-0.283,-0.154l-0.281,-0.156l-0.28,-0.157l-0.279,-0.157l-0.277,-0.159l-0.277,-0.159l-0.275,-0.161l-0.273,-0.162l-0.272,-0.162l-0.271,-0.164l-0.27,-0.165l-0.268,-0.166l-0.267,-0.166l-0.265,-0.167l-0.265,-0.169l-0.263,-0.17l-0.261,-0.17l-0.26,-0.171l-0.259,-0.172l-0.258,-0.173l-0.256,-0.174l-0.255,-0.175l-0.254,-0.176l-0.252,-0.176l-0.252,-0.178l-0.249,-0.178l-0.248,-0.179l-0.247,-0.181l-0.246,-0.181l-0.244,-0.181l-0.244,-0.183l-0.242,-0.183l-0.24,-0.184l-0.239,-0.185l-0.238,-0.186l-0.237,-0.186l-0.235,-0.187l-0.234,-0.188l-0.233,-0.189l-0.232,-0.19l-0.23,-0.19l-0.228,-0.19l-0.228,-0.192l-0.227,-0.193l-0.225,-0.193l-0.223,-0.193l-0.222,-0.194l-0.223,-0.197l-0.219,-0.195l-0.219,-0.196l-0.218,-0.198l-0.216,-0.197l-0.215,-0.198l-0.213,-0.199l-0.213,-0.2l-0.211,-0.2l-0.209,-0.201l-0.209,-0.201l-0.208,-0.202l-0.206,-0.203l-0.205,-0.202l-0.204,-0.204l-0.203,-0.205l-0.201,-0.205l-0.2,-0.205l-0.199,-0.206l-0.197,-0.206l-0.197,-0.207l-0.195,-0.207l-0.194,-0.208l-0.193,-0.209l-0.191,-0.208l-0.191,-0.21l-0.189,-0.209l-0.188,-0.21l-0.186,-0.21l-0.186,-0.212l-0.185,-0.212l-0.183,-0.211l-0.182,-0.213l-0.181,-0.213l-0.179,-0.213l-0.179,-0.213l-0.178,-0.215l-0.176,-0.214l-0.174,-0.213l-0.175,-0.216l-0.173,-0.216l-0.171,-0.215l-0.17,-0.216l-0.17,-0.217l-0.168,-0.216l-0.168,-0.217l-0.166,-0.218l-0.164,-0.217l-0.164,-0.218l-0.162,-0.218l-0.162,-0.218l-0.161,-0.22l-0.158,-0.218l-0.159,-0.219l-0.157,-0.22l-0.156,-0.22l-0.155,-0.22l-0.154,-0.22l-0.153,-0.22l-0.151,-0.22l-0.151,-0.221l-0.15,-0.222l-0.148,-0.22l-0.147,-0.222l-0.147,-0.221l-0.145,-0.222l-0.145,-0.222l-0.143,-0.222l-0.141,-0.221l-0.142,-0.223l-0.14,-0.222l-0.139,-0.222l-0.138,-0.223l-0.137,-0.224l-0.136,-0.222l-0.135,-0.223l-0.134,-0.223l-0.133,-0.223l-0.132,-0.223l-0.131,-0.224l-0.13,-0.223l-0.129,-0.223l-0.128,-0.223l-0.128,-0.224l-0.125,-0.223l-0.126,-0.223l-0.124,-0.224l-0.123,-0.223l-0.125,-0.23l-0.239,-0.441l-0.238,-0.447l-0.234,-0.446l-0.23,-0.447l-0.227,-0.446l-0.223,-0.447l-0.219,-0.445l-0.216,-0.445l-0.212,-0.445l-0.209,-0.445l-0.205,-0.443l-0.202,-0.444l-0.198,-0.443l-0.195,-0.441l-0.192,-0.442l-0.188,-0.44l-0.185,-0.44l-0.182,-0.439l-0.178,-0.437l-0.175,-0.437l-0.173,-0.436l-0.169,-0.435l-0.166,-0.433l-0.162,-0.432l-0.16,-0.431l-0.157,-0.43l-0.154,-0.429l-0.151,-0.427l-0.148,-0.426l-0.144,-0.424l-0.143,-0.422l-0.139,-0.421l-0.137,-0.42l-0.133,-0.417l-0.132,-0.417l-0.128,-0.414l-0.126,-0.413l-0.123,-0.409l-0.12,-0.41l-0.118,-0.407l-0.116,-0.404l-0.112,-0.403l-0.111,-0.401l-0.108,-0.398l-0.105,-0.396l-0.103,-0.394l-0.101,-0.391l-0.099,-0.39l-0.096,-0.388l-0.093,-0.383l-0.092,-0.383l-0.089,-0.379l-0.087,-0.377l-0.085,-0.374l-0.083,-0.372l-0.081,-0.369l-0.079,-0.367l-0.076,-0.363l-0.075,-0.36l-0.072,-0.359l-0.071,-0.354l-0.069,-0.352l-0.066,-0.348l-0.065,-0.346l-0.063,-0.343l-0.061,-0.338l-0.06,-0.336l-0.058,-0.334l-0.055,-0.329l-0.055,-0.326l-0.052,-0.322l-0.051,-0.32l-0.049,-0.316l-0.048,-0.312l-0.046,-0.308l-0.044,-0.305l-0.043,-0.301l-0.042,-0.298l-0.04,-0.293l-0.039,-0.291l-0.037,-0.285l-0.035,-0.282l-0.035,-0.278l-0.033,-0.274l-0.032,-0.276l-0.06,-0.522l-0.054,-0.51l-0.051,-0.494l-0.045,-0.475l-0.042,-0.458l-0.037,-0.44l-0.034,-0.421l-0.03,-0.402l-0.026,-0.382l-0.024,-0.362l-0.02,-0.342l-0.018,-0.321l-0.015,-0.301l-0.012,-0.279l-0.011,-0.257l-0.008,-0.236l-0.007,-0.213l-0.005,-0.198l-0.006,-0.298l-0.003,-0.211l0,-0.101l0,-506.383l178.7,0l0,506.372l-0.001,0.424l-0.003,0.43l-0.004,0.429l-0.006,0.428l-0.007,0.426l-0.01,0.425l-0.011,0.423l-0.012,0.422l-0.015,0.421l-0.016,0.419l-0.017,0.418l-0.02,0.416l-0.021,0.414l-0.022,0.414l-0.024,0.412l-0.026,0.411l-0.028,0.409l-0.029,0.408l-0.03,0.406l-0.033,0.405l-0.034,0.403l-0.035,0.403l-0.037,0.401l-0.039,0.399l-0.04,0.398l-0.042,0.397l-0.044,0.395l-0.045,0.393l-0.046,0.393l-0.049,0.392l-0.049,0.389l-0.052,0.388l-0.053,0.387l-0.054,0.385l-0.056,0.385l-0.058,0.383l-0.058,0.38l-0.061,0.381l-0.062,0.378l-0.064,0.378l-0.065,0.376l-0.066,0.374l-0.068,0.373l-0.07,0.372l-0.071,0.371l-0.073,0.368l-0.074,0.368l-0.075,0.366l-0.077,0.365l-0.079,0.364l-0.079,0.362l-0.082,0.361l-0.083,0.359l-0.084,0.358l-0.086,0.357l-0.087,0.355l-0.088,0.354l-0.09,0.353l-0.091,0.351l-0.093,0.35l-0.094,0.349l-0.096,0.347l-0.097,0.346l-0.098,0.344l-0.1,0.344l-0.101,0.342l-0.102,0.34l-0.104,0.339l-0.105,0.338l-0.107,0.336l-0.108,0.335l-0.109,0.334l-0.11,0.332l-0.112,0.331l-0.113,0.329l-0.115,0.329l-0.116,0.327l-0.116,0.325l-0.119,0.325l-0.12,0.323l-0.12,0.32l-0.122,0.321l-0.124,0.319l-0.124,0.317l-0.127,0.316l-0.127,0.315l-0.128,0.313l-0.13,0.313l-0.131,0.31l-0.132,0.309l-0.133,0.308l-0.135,0.308l-0.136,0.305l-0.136,0.303l-0.138,0.302l-0.14,0.302l-0.14,0.301l-0.141,0.297l-0.143,0.298l-0.144,0.296l-0.145,0.294l-0.147,0.294l-0.147,0.292l-0.148,0.29l-0.15,0.289l-0.15,0.288l-0.152,0.286l-0.153,0.286l-0.153,0.283l-0.155,0.283l-0.157,0.282l-0.156,0.278l-0.158,0.279l-0.159,0.277l-0.161,0.276l-0.161,0.275l-0.162,0.273l-0.163,0.271l-0.164,0.271l-0.166,0.269l-0.166,0.268l-0.167,0.266l-0.168,0.266l-0.169,0.264l-0.17,0.262l-0.171,0.261l-0.172,0.26l-0.173,0.259l-0.174,0.257l-0.174,0.255l-0.175,0.255l-0.177,0.253l-0.178,0.253l-0.177,0.25l-0.18,0.249l-0.179,0.248l-0.182,0.247l-0.181,0.246l-0.182,0.244l-0.183,0.242l-0.185,0.242l-0.185,0.241l-0.185,0.238l-0.186,0.237l-0.188,0.236l-0.188,0.236l-0.189,0.234l-0.19,0.232l-0.19,0.23l-0.19,0.23l-0.193,0.229l-0.193,0.228l-0.193,0.226l-0.194,0.224l-0.194,0.224l-0.195,0.221l-0.197,0.222l-0.197,0.22l-0.196,0.218l-0.199,0.217l-0.199,0.216l-0.199,0.214l-0.2,0.214l-0.2,0.212l-0.202,0.211l-0.201,0.209l-0.202,0.208l-0.203,0.207l-0.205,0.207l-0.204,0.204l-0.204,0.203l-0.206,0.203l-0.205,0.201l-0.206,0.199l-0.208,0.199l-0.207,0.198l-0.207,0.195l-0.209,0.195l-0.21,0.194l-0.209,0.192l-0.209,0.191l-0.211,0.191l-0.211,0.189l-0.211,0.187l-0.212,0.187l-0.213,0.185l-0.212,0.184l-0.213,0.183l-0.213,0.182l-0.214,0.18l-0.215,0.18l-0.215,0.178l-0.215,0.177l-0.214,0.176l-0.217,0.175l-0.217,0.174l-0.216,0.172l-0.216,0.171l-0.218,0.171l-0.217,0.169l-0.219,0.168l-0.218,0.167l-0.217,0.165l-0.22,0.165l-0.22,0.164l-0.219,0.162l-0.219,0.161l-0.22,0.16l-0.22,0.159l-0.221,0.158l-0.221,0.157l-0.221,0.156l-0.221,0.154l-0.222,0.154l-0.221,0.153l-0.222,0.151l-0.222,0.15l-0.222,0.149l-0.223,0.149l-0.223,0.147l-0.223,0.146l-0.222,0.145l-0.223,0.144l-0.224,0.143l-0.224,0.143l-0.223,0.14l-0.223,0.14l-0.224,0.139l-0.225,0.138l-0.224,0.137l-0.224,0.136l-0.224,0.134l-0.224,0.134l-0.225,0.133l-0.225,0.132l-0.225,0.131l-0.224,0.129l-0.224,0.129l-0.226,0.128l-0.225,0.127l-0.225,0.126l-0.224,0.125l-0.224,0.124l-0.226,0.123l-0.226,0.123l-0.23,0.123l-0.443,0.237l-0.45,0.235l-0.45,0.233l-0.45,0.228l-0.449,0.224l-0.449,0.221l-0.448,0.218l-0.448,0.213l-0.448,0.211l-0.448,0.207l-0.446,0.203l-0.446,0.2l-0.446,0.196l-0.445,0.194l-0.444,0.189l-0.443,0.187l-0.443,0.183l-0.441,0.18l-0.441,0.177l-0.439,0.174l-0.438,0.17l-0.438,0.168l-0.436,0.164l-0.435,0.161l-0.434,0.159l-0.433,0.155l-0.431,0.152l-0.429,0.15l-0.428,0.146l-0.428,0.144l-0.425,0.141l-0.423,0.138l-0.423,0.135l-0.42,0.133l-0.419,0.13l-0.417,0.127l-0.414,0.125l-0.413,0.121l-0.412,0.12l-0.409,0.117l-0.408,0.114l-0.405,0.112l-0.402,0.109l-0.402,0.107l-0.398,0.105l-0.396,0.102l-0.395,0.099l-0.392,0.098l-0.389,0.095l-0.387,0.093l-0.384,0.091l-0.382,0.088l-0.379,0.086l-0.377,0.085l-0.375,0.082l-0.37,0.08l-0.369,0.078l-0.365,0.075l-0.363,0.074l-0.36,0.072l-0.357,0.07l-0.354,0.068l-0.351,0.066l-0.348,0.065l-0.344,0.062l-0.341,0.061l-0.338,0.059l-0.336,0.057l-0.331,0.055l-0.328,0.054l-0.324,0.052l-0.321,0.05l-0.318,0.049l-0.314,0.047l-0.31,0.046l-0.308,0.044l-0.302,0.042l-0.299,0.041l-0.297,0.04l-0.291,0.038l-0.287,0.037l-0.285,0.036l-0.284,0.034l-0.542,0.064l-0.53,0.059l-0.514,0.054l-0.496,0.05l-0.479,0.045l-0.46,0.041l-0.442,0.038l-0.424,0.033l-0.403,0.029l-0.384,0.027l-0.365,0.023l-0.344,0.02l-0.323,0.017l-0.302,0.015l-0.28,0.013l-0.259,0.01l-0.237,0.008l-0.213,0.007l-0.198,0.005l-0.3,0.006l-0.211,0.003l-0.1,0l-24.652,0ZM607.355,637.733l24.597,0l0.085,-0.001l0.185,-0.004l0.114,-0.003l0.143,-0.004l0.163,-0.006l0.186,-0.007l0.207,-0.009l0.226,-0.011l0.246,-0.014l0.267,-0.015l0.284,-0.018l0.304,-0.021l0.322,-0.024l0.339,-0.026l0.357,-0.03l0.374,-0.034l0.391,-0.037l0.407,-0.04l0.423,-0.045l0.438,-0.049l0.459,-0.054l0.227,-0.028l0.235,-0.029l0.239,-0.031l0.244,-0.031l0.245,-0.033l0.25,-0.035l0.253,-0.035l0.255,-0.037l0.26,-0.038l0.262,-0.039l0.266,-0.041l0.269,-0.042l0.272,-0.044l0.274,-0.045l0.278,-0.046l0.28,-0.048l0.283,-0.049l0.287,-0.051l0.289,-0.053l0.291,-0.054l0.295,-0.055l0.296,-0.057l0.299,-0.059l0.302,-0.06l0.303,-0.062l0.307,-0.063l0.308,-0.066l0.312,-0.067l0.313,-0.068l0.314,-0.071l0.318,-0.072l0.32,-0.074l0.321,-0.076l0.324,-0.077l0.325,-0.08l0.327,-0.081l0.328,-0.084l0.331,-0.085l0.333,-0.087l0.333,-0.089l0.336,-0.091l0.338,-0.093l0.338,-0.095l0.34,-0.097l0.341,-0.099l0.343,-0.101l0.344,-0.104l0.345,-0.105l0.347,-0.107l0.347,-0.11l0.348,-0.112l0.35,-0.114l0.351,-0.116l0.351,-0.118l0.352,-0.121l0.354,-0.123l0.354,-0.125l0.355,-0.127l0.355,-0.13l0.356,-0.132l0.357,-0.134l0.357,-0.137l0.357,-0.139l0.358,-0.141l0.359,-0.144l0.359,-0.147l0.358,-0.148l0.36,-0.151l0.36,-0.154l0.359,-0.156l0.359,-0.159l0.36,-0.161l0.36,-0.164l0.36,-0.166l0.359,-0.169l0.359,-0.171l0.36,-0.174l0.359,-0.177l0.359,-0.18l0.358,-0.182l0.357,-0.184l0.358,-0.187l0.363,-0.194l0.174,-0.093l0.177,-0.096l0.177,-0.097l0.178,-0.099l0.179,-0.099l0.178,-0.099l0.177,-0.1l0.177,-0.101l0.177,-0.102l0.177,-0.102l0.177,-0.103l0.177,-0.104l0.176,-0.104l0.176,-0.105l0.176,-0.106l0.176,-0.106l0.176,-0.108l0.174,-0.107l0.175,-0.108l0.176,-0.11l0.175,-0.111l0.174,-0.11l0.173,-0.111l0.174,-0.113l0.175,-0.113l0.173,-0.114l0.173,-0.114l0.172,-0.115l0.173,-0.116l0.173,-0.117l0.171,-0.117l0.172,-0.118l0.171,-0.119l0.171,-0.119l0.171,-0.121l0.17,-0.121l0.17,-0.122l0.171,-0.123l0.169,-0.123l0.169,-0.124l0.17,-0.125l0.168,-0.126l0.167,-0.126l0.169,-0.127l0.167,-0.128l0.167,-0.129l0.166,-0.129l0.167,-0.131l0.166,-0.131l0.166,-0.132l0.164,-0.132l0.165,-0.133l0.165,-0.135l0.164,-0.135l0.164,-0.136l0.163,-0.137l0.162,-0.137l0.163,-0.138l0.162,-0.139l0.162,-0.141l0.16,-0.14l0.161,-0.141l0.161,-0.143l0.159,-0.143l0.159,-0.144l0.159,-0.145l0.159,-0.146l0.158,-0.146l0.157,-0.147l0.158,-0.148l0.157,-0.149l0.155,-0.149l0.156,-0.151l0.155,-0.152l0.155,-0.152l0.154,-0.154l0.154,-0.154l0.152,-0.154l0.153,-0.156l0.153,-0.157l0.152,-0.158l0.151,-0.158l0.15,-0.159l0.15,-0.16l0.15,-0.161l0.149,-0.162l0.148,-0.163l0.149,-0.164l0.147,-0.165l0.146,-0.165l0.147,-0.167l0.146,-0.167l0.146,-0.169l0.145,-0.169l0.143,-0.169l0.143,-0.171l0.143,-0.172l0.143,-0.174l0.142,-0.174l0.141,-0.174l0.141,-0.176l0.139,-0.176l0.14,-0.178l0.14,-0.18l0.137,-0.178l0.138,-0.181l0.137,-0.182l0.137,-0.182l0.136,-0.184l0.134,-0.184l0.135,-0.185l0.134,-0.187l0.133,-0.188l0.133,-0.188l0.131,-0.189l0.132,-0.19l0.131,-0.192l0.13,-0.193l0.129,-0.193l0.129,-0.195l0.128,-0.195l0.127,-0.197l0.127,-0.198l0.126,-0.198l0.125,-0.2l0.125,-0.201l0.124,-0.202l0.123,-0.203l0.123,-0.204l0.122,-0.206l0.121,-0.206l0.12,-0.207l0.12,-0.208l0.119,-0.21l0.118,-0.211l0.118,-0.212l0.116,-0.213l0.117,-0.214l0.114,-0.214l0.115,-0.217l0.114,-0.218l0.113,-0.218l0.112,-0.22l0.112,-0.221l0.11,-0.222l0.11,-0.223l0.109,-0.224l0.108,-0.226l0.108,-0.227l0.107,-0.228l0.105,-0.228l0.106,-0.231l0.104,-0.232l0.104,-0.233l0.102,-0.234l0.102,-0.235l0.101,-0.237l0.101,-0.238l0.099,-0.238l0.098,-0.241l0.098,-0.241l0.096,-0.242l0.096,-0.245l0.095,-0.245l0.094,-0.246l0.094,-0.249l0.092,-0.249l0.091,-0.25l0.091,-0.252l0.09,-0.253l0.088,-0.254l0.088,-0.256l0.087,-0.257l0.086,-0.259l0.085,-0.259l0.083,-0.261l0.084,-0.262l0.082,-0.264l0.081,-0.265l0.08,-0.267l0.079,-0.268l0.079,-0.269l0.077,-0.271l0.076,-0.272l0.075,-0.272l0.074,-0.275l0.074,-0.276l0.072,-0.279l0.071,-0.278l0.07,-0.281l0.069,-0.282l0.068,-0.282l0.067,-0.285l0.066,-0.287l0.065,-0.287l0.064,-0.29l0.062,-0.29l0.062,-0.292l0.06,-0.293l0.06,-0.295l0.058,-0.297l0.057,-0.298l0.056,-0.299l0.055,-0.301l0.054,-0.303l0.053,-0.304l0.051,-0.305l0.05,-0.307l0.049,-0.308l0.049,-0.311l0.046,-0.311l0.046,-0.313l0.044,-0.314l0.044,-0.317l0.042,-0.317l0.04,-0.32l0.04,-0.32l0.038,-0.322l0.037,-0.325l0.036,-0.325l0.035,-0.327l0.033,-0.329l0.032,-0.331l0.031,-0.332l0.029,-0.333l0.028,-0.335l0.027,-0.337l0.026,-0.338l0.024,-0.34l0.023,-0.342l0.022,-0.343l0.02,-0.345l0.019,-0.346l0.017,-0.348l0.016,-0.35l0.015,-0.351l0.014,-0.353l0.012,-0.355l0.01,-0.356l0.01,-0.359l0.008,-0.359l0.006,-0.361l0.005,-0.363l0.004,-0.365l0.002,-0.367l0.001,-0.375l0,-490.156l-146.3,0l0,490.143l0.001,0.082l0.004,0.182l0.003,0.112l0.004,0.14l0.006,0.162l0.007,0.184l0.009,0.204l0.011,0.223l0.014,0.244l0.015,0.263l0.019,0.282l0.02,0.3l0.024,0.318l0.027,0.336l0.03,0.353l0.034,0.371l0.037,0.387l0.041,0.402l0.045,0.419l0.05,0.439l0.025,0.217l0.027,0.226l0.029,0.229l0.029,0.234l0.031,0.237l0.032,0.24l0.033,0.243l0.035,0.247l0.035,0.25l0.037,0.254l0.039,0.257l0.04,0.26l0.04,0.263l0.043,0.266l0.044,0.269l0.045,0.272l0.047,0.275l0.047,0.277l0.05,0.28l0.051,0.285l0.053,0.285l0.054,0.289l0.056,0.291l0.057,0.293l0.059,0.297l0.061,0.298l0.062,0.301l0.064,0.304l0.066,0.305l0.067,0.307l0.069,0.311l0.071,0.312l0.072,0.314l0.075,0.317l0.076,0.318l0.078,0.321l0.08,0.321l0.082,0.323l0.084,0.326l0.085,0.328l0.088,0.329l0.09,0.331l0.091,0.332l0.094,0.333l0.095,0.336l0.098,0.336l0.099,0.338l0.102,0.34l0.104,0.34l0.106,0.342l0.108,0.343l0.11,0.344l0.113,0.345l0.114,0.346l0.117,0.347l0.119,0.349l0.121,0.348l0.124,0.35l0.126,0.351l0.127,0.35l0.131,0.353l0.133,0.353l0.135,0.353l0.138,0.353l0.139,0.354l0.143,0.355l0.144,0.355l0.147,0.355l0.15,0.355l0.152,0.356l0.155,0.356l0.157,0.356l0.159,0.356l0.162,0.356l0.165,0.356l0.168,0.357l0.169,0.356l0.173,0.356l0.175,0.356l0.178,0.355l0.18,0.355l0.183,0.355l0.186,0.355l0.188,0.354l0.195,0.359l0.093,0.171l0.097,0.177l0.098,0.176l0.099,0.176l0.1,0.177l0.1,0.176l0.1,0.175l0.204,0.352l0.103,0.175l0.103,0.174l0.21,0.35l0.106,0.175l0.106,0.174l0.107,0.174l0.107,0.173l0.109,0.175l0.11,0.173l0.109,0.173l0.112,0.174l0.111,0.173l0.112,0.172l0.113,0.172l0.228,0.344l0.116,0.172l0.115,0.171l0.117,0.17l0.117,0.171l0.119,0.171l0.238,0.34l0.12,0.169l0.121,0.169l0.122,0.169l0.123,0.169l0.123,0.168l0.124,0.168l0.126,0.168l0.126,0.167l0.126,0.168l0.127,0.166l0.128,0.166l0.129,0.166l0.129,0.165l0.131,0.165l0.132,0.167l0.131,0.163l0.133,0.164l0.134,0.165l0.135,0.163l0.134,0.162l0.136,0.163l0.138,0.163l0.136,0.161l0.139,0.161l0.14,0.163l0.139,0.159l0.141,0.16l0.142,0.16l0.143,0.16l0.143,0.159l0.144,0.158l0.145,0.158l0.146,0.158l0.146,0.157l0.148,0.157l0.148,0.156l0.15,0.156l0.15,0.155l0.151,0.155l0.152,0.155l0.152,0.153l0.153,0.153l0.155,0.154l0.156,0.152l0.155,0.152l0.157,0.151l0.158,0.152l0.159,0.15l0.16,0.15l0.161,0.15l0.161,0.149l0.162,0.148l0.163,0.148l0.165,0.148l0.165,0.147l0.165,0.145l0.167,0.146l0.169,0.146l0.169,0.145l0.168,0.143l0.171,0.144l0.172,0.144l0.346,0.284l0.174,0.141l0.352,0.282l0.177,0.139l0.178,0.139l0.18,0.139l0.18,0.138l0.181,0.137l0.182,0.136l0.183,0.137l0.184,0.135l0.185,0.135l0.186,0.134l0.188,0.134l0.187,0.133l0.19,0.133l0.19,0.131l0.191,0.131l0.193,0.131l0.192,0.129l0.195,0.13l0.195,0.128l0.197,0.129l0.197,0.127l0.198,0.126l0.2,0.126l0.402,0.25l0.203,0.124l0.204,0.123l0.205,0.122l0.206,0.122l0.207,0.121l0.208,0.12l0.21,0.12l0.21,0.119l0.212,0.119l0.213,0.117l0.214,0.117l0.214,0.116l0.216,0.115l0.218,0.115l0.218,0.114l0.22,0.113l0.442,0.224l0.223,0.111l0.225,0.11l0.452,0.218l0.229,0.108l0.228,0.106l0.23,0.106l0.232,0.106l0.232,0.104l0.234,0.104l0.236,0.103l0.236,0.102l0.237,0.101l0.239,0.101l0.241,0.1l0.241,0.098l0.243,0.098l0.244,0.097l0.245,0.096l0.246,0.096l0.248,0.094l0.249,0.094l0.251,0.092l0.252,0.092l0.253,0.091l0.254,0.09l0.256,0.089l0.257,0.089l0.258,0.087l0.26,0.086l0.261,0.086l0.262,0.084l0.264,0.084l0.265,0.083l0.266,0.081l0.269,0.081l0.269,0.08l0.27,0.078l0.272,0.078l0.273,0.077l0.275,0.076l0.277,0.075l0.277,0.074l0.279,0.072l0.281,0.072l0.281,0.071l0.284,0.07l0.285,0.069l0.286,0.067l0.288,0.067l0.288,0.065l0.292,0.065l0.292,0.063l0.293,0.063l0.295,0.061l0.297,0.06l0.297,0.059l0.301,0.058l0.301,0.057l0.301,0.056l0.61,0.108l0.307,0.052l0.309,0.051l0.31,0.051l0.312,0.048l0.313,0.048l0.314,0.047l0.317,0.045l0.318,0.044l0.32,0.043l0.32,0.042l0.322,0.04l0.325,0.04l0.326,0.038l0.327,0.037l0.328,0.035l0.331,0.035l0.332,0.033l0.334,0.032l0.335,0.03l0.337,0.03l0.338,0.028l0.34,0.026l0.342,0.026l0.343,0.024l0.345,0.023l0.347,0.021l0.349,0.02l0.349,0.019l0.352,0.018l0.353,0.016l0.355,0.014l0.357,0.014l0.357,0.012l0.36,0.01l0.362,0.01l0.363,0.007l0.364,0.007l0.367,0.005l0.369,0.003l0.37,0.003l0.379,0Z" style="fill:#fff;"/><clipPath id="tag6"><path d="M557.167,95.8333l0,477.736c0,0 0,51.431 52.014,51.431l20.958,0c0,0 52.028,0 52.028,-51.431l0,-477.736l-125,0Z"/></clipPath><g clip-path="url({{site.baseurl}}#tag6)"><rect x="536.333" y="75" width="166.667" height="570.833" style="fill:#a7166a;"/></g><clipPath id="tag7"><path d="M300,79.1667l0,498.264c0,0 0,68.402 68.931,68.402l24.625,0c0,0 68.944,0 68.944,-68.402l0,-498.264l-162.5,0Z"/></clipPath><g clip-path="url({{site.baseurl}}#tag7)"><rect x="279.167" y="58.3333" width="204.167" height="608.333" style="fill:#fff;"/></g><path d="M368.923,653.933l-0.427,0l-0.434,-0.003l-0.431,-0.004l-0.43,-0.006l-0.429,-0.008l-0.427,-0.009l-0.426,-0.011l-0.424,-0.012l-0.424,-0.014l-0.421,-0.016l-0.42,-0.018l-0.419,-0.019l-0.417,-0.02l-0.416,-0.023l-0.414,-0.024l-0.413,-0.025l-0.412,-0.028l-0.41,-0.028l-0.408,-0.031l-0.408,-0.032l-0.406,-0.033l-0.405,-0.036l-0.403,-0.036l-0.402,-0.039l-0.4,-0.04l-0.399,-0.041l-0.397,-0.043l-0.396,-0.045l-0.395,-0.046l-0.392,-0.048l-0.393,-0.049l-0.391,-0.051l-0.389,-0.052l-0.387,-0.054l-0.386,-0.055l-0.385,-0.057l-0.384,-0.059l-0.382,-0.06l-0.381,-0.061l-0.379,-0.063l-0.378,-0.065l-0.377,-0.065l-0.375,-0.068l-0.374,-0.069l-0.373,-0.07l-0.37,-0.072l-0.37,-0.073l-0.369,-0.075l-0.366,-0.076l-0.366,-0.078l-0.364,-0.079l-0.363,-0.08l-0.361,-0.082l-0.361,-0.084l-0.359,-0.085l-0.357,-0.086l-0.355,-0.087l-0.356,-0.09l-0.353,-0.09l-0.351,-0.092l-0.351,-0.093l-0.349,-0.095l-0.348,-0.096l-0.347,-0.097l-0.344,-0.099l-0.344,-0.1l-0.343,-0.101l-0.34,-0.103l-0.34,-0.104l-0.338,-0.106l-0.337,-0.106l-0.336,-0.108l-0.334,-0.11l-0.333,-0.111l-0.331,-0.112l-0.33,-0.113l-0.329,-0.114l-0.328,-0.116l-0.326,-0.118l-0.324,-0.118l-0.324,-0.12l-0.322,-0.121l-0.32,-0.122l-0.319,-0.123l-0.319,-0.125l-0.316,-0.126l-0.315,-0.127l-0.314,-0.129l-0.312,-0.129l-0.311,-0.131l-0.311,-0.132l-0.308,-0.133l-0.307,-0.135l-0.306,-0.135l-0.305,-0.137l-0.302,-0.138l-0.301,-0.139l-0.302,-0.14l-0.298,-0.142l-0.298,-0.142l-0.296,-0.143l-0.295,-0.145l-0.294,-0.146l-0.292,-0.147l-0.291,-0.148l-0.289,-0.149l-0.289,-0.151l-0.287,-0.151l-0.285,-0.152l-0.285,-0.154l-0.282,-0.154l-0.282,-0.156l-0.28,-0.157l-0.279,-0.157l-0.277,-0.159l-0.276,-0.159l-0.276,-0.161l-0.273,-0.162l-0.272,-0.162l-0.271,-0.164l-0.269,-0.165l-0.269,-0.166l-0.267,-0.166l-0.265,-0.167l-0.264,-0.169l-0.264,-0.17l-0.261,-0.17l-0.26,-0.171l-0.259,-0.172l-0.258,-0.173l-0.256,-0.174l-0.255,-0.175l-0.254,-0.176l-0.252,-0.177l-0.251,-0.177l-0.25,-0.179l-0.247,-0.178l-0.248,-0.18l-0.246,-0.182l-0.244,-0.181l-0.244,-0.183l-0.241,-0.183l-0.24,-0.184l-0.24,-0.185l-0.238,-0.186l-0.236,-0.186l-0.236,-0.187l-0.234,-0.188l-0.233,-0.189l-0.231,-0.19l-0.23,-0.19l-0.229,-0.19l-0.228,-0.192l-0.227,-0.193l-0.225,-0.193l-0.223,-0.193l-0.222,-0.195l-0.222,-0.195l-0.22,-0.196l-0.218,-0.196l-0.218,-0.198l-0.216,-0.197l-0.215,-0.198l-0.214,-0.2l-0.212,-0.199l-0.212,-0.2l-0.209,-0.201l-0.209,-0.201l-0.208,-0.202l-0.206,-0.203l-0.205,-0.203l-0.203,-0.203l-0.203,-0.205l-0.202,-0.205l-0.199,-0.205l-0.199,-0.206l-0.198,-0.206l-0.196,-0.207l-0.196,-0.207l-0.193,-0.208l-0.193,-0.209l-0.192,-0.208l-0.19,-0.209l-0.189,-0.21l-0.188,-0.21l-0.187,-0.211l-0.186,-0.211l-0.185,-0.212l-0.182,-0.211l-0.182,-0.213l-0.182,-0.213l-0.179,-0.213l-0.179,-0.213l-0.177,-0.214l-0.177,-0.215l-0.174,-0.214l-0.174,-0.215l-0.173,-0.216l-0.172,-0.215l-0.17,-0.216l-0.17,-0.216l-0.168,-0.217l-0.167,-0.217l-0.166,-0.218l-0.165,-0.217l-0.163,-0.218l-0.163,-0.218l-0.162,-0.218l-0.16,-0.22l-0.159,-0.218l-0.158,-0.219l-0.158,-0.22l-0.156,-0.22l-0.155,-0.219l-0.153,-0.22l-0.153,-0.221l-0.152,-0.221l-0.151,-0.22l-0.149,-0.222l-0.149,-0.221l-0.147,-0.22l-0.146,-0.222l-0.146,-0.222l-0.144,-0.222l-0.143,-0.222l-0.142,-0.222l-0.142,-0.222l-0.14,-0.222l-0.139,-0.223l-0.138,-0.222l-0.137,-0.223l-0.136,-0.223l-0.135,-0.223l-0.134,-0.223l-0.133,-0.223l-0.132,-0.223l-0.131,-0.224l-0.13,-0.223l-0.129,-0.223l-0.128,-0.223l-0.127,-0.224l-0.126,-0.223l-0.125,-0.223l-0.124,-0.224l-0.124,-0.224l-0.125,-0.229l-0.238,-0.441l-0.238,-0.447l-0.234,-0.446l-0.231,-0.447l-0.226,-0.446l-0.223,-0.446l-0.22,-0.446l-0.216,-0.445l-0.212,-0.445l-0.209,-0.445l-0.205,-0.443l-0.201,-0.444l-0.199,-0.443l-0.195,-0.441l-0.191,-0.442l-0.189,-0.44l-0.185,-0.44l-0.181,-0.439l-0.179,-0.437l-0.175,-0.437l-0.172,-0.436l-0.169,-0.435l-0.166,-0.433l-0.163,-0.432l-0.16,-0.431l-0.157,-0.43l-0.153,-0.429l-0.151,-0.427l-0.148,-0.426l-0.145,-0.424l-0.142,-0.422l-0.14,-0.421l-0.136,-0.42l-0.134,-0.418l-0.131,-0.416l-0.129,-0.414l-0.125,-0.412l-0.124,-0.411l-0.12,-0.409l-0.118,-0.406l-0.115,-0.405l-0.113,-0.403l-0.111,-0.401l-0.108,-0.398l-0.105,-0.396l-0.103,-0.394l-0.101,-0.392l-0.098,-0.389l-0.096,-0.387l-0.094,-0.385l-0.092,-0.382l-0.089,-0.379l-0.087,-0.377l-0.085,-0.374l-0.083,-0.372l-0.08,-0.369l-0.079,-0.367l-0.077,-0.363l-0.074,-0.36l-0.073,-0.358l-0.071,-0.355l-0.068,-0.352l-0.067,-0.348l-0.065,-0.346l-0.063,-0.343l-0.061,-0.339l-0.059,-0.335l-0.058,-0.333l-0.056,-0.33l-0.054,-0.326l-0.053,-0.322l-0.051,-0.32l-0.049,-0.316l-0.048,-0.312l-0.046,-0.308l-0.044,-0.305l-0.043,-0.301l-0.042,-0.298l-0.04,-0.293l-0.038,-0.29l-0.037,-0.286l-0.036,-0.282l-0.035,-0.278l-0.033,-0.274l-0.032,-0.276l-0.059,-0.522l-0.055,-0.51l-0.05,-0.494l-0.046,-0.476l-0.042,-0.457l-0.037,-0.44l-0.034,-0.421l-0.029,-0.402l-0.027,-0.381l-0.023,-0.363l-0.021,-0.342l-0.017,-0.322l-0.015,-0.3l-0.013,-0.279l-0.01,-0.257l-0.009,-0.236l-0.006,-0.213l-0.006,-0.198l-0.006,-0.298l-0.002,-0.209l-0.001,-0.1l0,-506.386l178.7,0l0,506.372l-0.001,0.423l-0.002,0.431l-0.005,0.429l-0.006,0.428l-0.007,0.426l-0.009,0.425l-0.011,0.423l-0.013,0.422l-0.014,0.421l-0.016,0.419l-0.018,0.417l-0.019,0.416l-0.021,0.415l-0.023,0.414l-0.024,0.412l-0.026,0.41l-0.027,0.41l-0.029,0.408l-0.031,0.406l-0.032,0.405l-0.034,0.404l-0.036,0.402l-0.037,0.401l-0.039,0.399l-0.04,0.398l-0.042,0.397l-0.043,0.395l-0.046,0.393l-0.046,0.393l-0.048,0.391l-0.05,0.39l-0.051,0.388l-0.053,0.387l-0.055,0.386l-0.056,0.383l-0.057,0.383l-0.059,0.382l-0.061,0.38l-0.062,0.378l-0.063,0.378l-0.065,0.376l-0.067,0.374l-0.068,0.373l-0.07,0.372l-0.071,0.37l-0.072,0.369l-0.074,0.368l-0.076,0.366l-0.077,0.365l-0.078,0.364l-0.08,0.362l-0.081,0.36l-0.083,0.36l-0.085,0.358l-0.085,0.357l-0.087,0.355l-0.089,0.354l-0.09,0.353l-0.091,0.351l-0.093,0.35l-0.094,0.349l-0.096,0.347l-0.097,0.346l-0.098,0.344l-0.099,0.343l-0.101,0.342l-0.103,0.341l-0.104,0.339l-0.105,0.338l-0.106,0.336l-0.108,0.335l-0.109,0.333l-0.111,0.333l-0.112,0.331l-0.113,0.329l-0.114,0.328l-0.116,0.327l-0.117,0.326l-0.119,0.325l-0.119,0.322l-0.121,0.321l-0.122,0.321l-0.124,0.319l-0.124,0.317l-0.126,0.316l-0.127,0.315l-0.129,0.313l-0.13,0.312l-0.13,0.311l-0.132,0.309l-0.134,0.309l-0.135,0.306l-0.135,0.305l-0.137,0.304l-0.138,0.303l-0.139,0.301l-0.141,0.3l-0.141,0.299l-0.143,0.297l-0.144,0.296l-0.145,0.294l-0.146,0.293l-0.147,0.292l-0.149,0.291l-0.149,0.289l-0.151,0.288l-0.151,0.286l-0.153,0.286l-0.154,0.283l-0.155,0.283l-0.156,0.281l-0.157,0.28l-0.158,0.278l-0.159,0.277l-0.16,0.276l-0.161,0.274l-0.163,0.274l-0.163,0.272l-0.164,0.27l-0.165,0.269l-0.166,0.268l-0.168,0.267l-0.168,0.265l-0.169,0.264l-0.17,0.262l-0.17,0.261l-0.173,0.26l-0.173,0.259l-0.173,0.257l-0.175,0.256l-0.175,0.254l-0.176,0.253l-0.178,0.253l-0.178,0.25l-0.179,0.249l-0.18,0.248l-0.181,0.247l-0.182,0.245l-0.182,0.245l-0.183,0.242l-0.184,0.242l-0.186,0.24l-0.185,0.239l-0.187,0.237l-0.187,0.236l-0.188,0.236l-0.189,0.234l-0.189,0.232l-0.191,0.231l-0.19,0.229l-0.192,0.229l-0.194,0.228l-0.192,0.225l-0.194,0.225l-0.195,0.224l-0.195,0.222l-0.196,0.221l-0.197,0.219l-0.197,0.219l-0.198,0.217l-0.199,0.216l-0.2,0.215l-0.199,0.213l-0.201,0.212l-0.201,0.21l-0.202,0.21l-0.202,0.209l-0.203,0.206l-0.204,0.207l-0.204,0.204l-0.205,0.203l-0.205,0.203l-0.206,0.201l-0.206,0.199l-0.207,0.199l-0.208,0.197l-0.207,0.196l-0.209,0.195l-0.209,0.194l-0.21,0.193l-0.209,0.191l-0.211,0.19l-0.211,0.188l-0.211,0.188l-0.212,0.187l-0.212,0.185l-0.212,0.184l-0.214,0.183l-0.213,0.182l-0.214,0.18l-0.215,0.18l-0.214,0.178l-0.215,0.177l-0.215,0.176l-0.216,0.175l-0.217,0.174l-0.216,0.172l-0.217,0.171l-0.218,0.171l-0.217,0.169l-0.218,0.168l-0.219,0.167l-0.218,0.165l-0.218,0.165l-0.22,0.164l-0.219,0.162l-0.22,0.161l-0.22,0.16l-0.22,0.159l-0.22,0.158l-0.221,0.157l-0.221,0.156l-0.222,0.154l-0.221,0.154l-0.222,0.152l-0.222,0.152l-0.222,0.15l-0.222,0.149l-0.223,0.149l-0.223,0.147l-0.223,0.146l-0.221,0.145l-0.224,0.144l-0.224,0.144l-0.224,0.142l-0.223,0.14l-0.223,0.14l-0.224,0.139l-0.225,0.138l-0.224,0.137l-0.224,0.135l-0.224,0.135l-0.224,0.134l-0.225,0.133l-0.224,0.132l-0.225,0.131l-0.225,0.129l-0.224,0.129l-0.225,0.128l-0.225,0.127l-0.225,0.126l-0.224,0.125l-0.225,0.124l-0.226,0.123l-0.225,0.122l-0.23,0.124l-0.444,0.237l-0.45,0.235l-0.45,0.232l-0.45,0.229l-0.448,0.224l-0.449,0.221l-0.449,0.218l-0.448,0.213l-0.448,0.211l-0.448,0.207l-0.446,0.203l-0.446,0.2l-0.446,0.197l-0.445,0.193l-0.444,0.189l-0.443,0.187l-0.442,0.183l-0.442,0.18l-0.44,0.177l-0.44,0.174l-0.438,0.17l-0.438,0.168l-0.436,0.164l-0.435,0.161l-0.434,0.159l-0.432,0.155l-0.432,0.152l-0.429,0.15l-0.428,0.146l-0.427,0.144l-0.425,0.141l-0.424,0.138l-0.422,0.135l-0.421,0.133l-0.418,0.13l-0.417,0.127l-0.415,0.125l-0.413,0.121l-0.411,0.12l-0.41,0.117l-0.407,0.114l-0.405,0.112l-0.403,0.109l-0.401,0.107l-0.399,0.105l-0.396,0.102l-0.395,0.099l-0.391,0.098l-0.39,0.095l-0.387,0.093l-0.384,0.091l-0.382,0.088l-0.379,0.086l-0.377,0.085l-0.374,0.082l-0.371,0.08l-0.369,0.078l-0.365,0.075l-0.363,0.074l-0.36,0.072l-0.357,0.07l-0.354,0.068l-0.35,0.066l-0.348,0.065l-0.345,0.062l-0.34,0.061l-0.339,0.059l-0.335,0.057l-0.331,0.055l-0.328,0.054l-0.325,0.052l-0.321,0.05l-0.318,0.049l-0.314,0.047l-0.31,0.046l-0.307,0.044l-0.303,0.042l-0.299,0.041l-0.296,0.04l-0.291,0.038l-0.288,0.037l-0.284,0.036l-0.285,0.034l-0.541,0.064l-0.531,0.059l-0.514,0.054l-0.496,0.05l-0.478,0.045l-0.461,0.041l-0.442,0.038l-0.424,0.033l-0.403,0.029l-0.384,0.027l-0.365,0.023l-0.344,0.02l-0.323,0.017l-0.302,0.015l-0.28,0.013l-0.258,0.01l-0.237,0.008l-0.214,0.007l-0.198,0.005l-0.3,0.006l-0.21,0.003l-0.101,0l-24.652,0ZM368.938,637.733l24.598,0l0.085,-0.001l0.184,-0.004l0.114,-0.003l0.143,-0.004l0.164,-0.006l0.185,-0.007l0.207,-0.009l0.226,-0.011l0.247,-0.014l0.266,-0.015l0.284,-0.018l0.304,-0.021l0.322,-0.024l0.34,-0.026l0.357,-0.03l0.374,-0.034l0.391,-0.037l0.407,-0.04l0.423,-0.045l0.438,-0.049l0.459,-0.054l0.227,-0.028l0.235,-0.029l0.239,-0.031l0.243,-0.031l0.245,-0.033l0.25,-0.035l0.253,-0.035l0.255,-0.037l0.261,-0.038l0.262,-0.039l0.265,-0.041l0.269,-0.042l0.272,-0.044l0.274,-0.045l0.279,-0.046l0.28,-0.048l0.283,-0.049l0.286,-0.051l0.289,-0.053l0.291,-0.054l0.295,-0.055l0.296,-0.057l0.299,-0.059l0.302,-0.06l0.304,-0.062l0.306,-0.063l0.309,-0.066l0.311,-0.067l0.313,-0.068l0.315,-0.071l0.317,-0.072l0.32,-0.074l0.322,-0.076l0.323,-0.077l0.325,-0.08l0.327,-0.081l0.329,-0.084l0.331,-0.085l0.332,-0.087l0.334,-0.089l0.336,-0.091l0.337,-0.093l0.339,-0.095l0.339,-0.097l0.341,-0.099l0.343,-0.101l0.344,-0.104l0.346,-0.105l0.346,-0.107l0.347,-0.11l0.349,-0.112l0.349,-0.114l0.351,-0.116l0.351,-0.118l0.353,-0.121l0.353,-0.123l0.354,-0.125l0.355,-0.127l0.355,-0.13l0.356,-0.132l0.357,-0.134l0.357,-0.137l0.358,-0.139l0.358,-0.141l0.358,-0.144l0.359,-0.147l0.359,-0.148l0.359,-0.151l0.36,-0.154l0.36,-0.156l0.359,-0.159l0.359,-0.161l0.361,-0.164l0.359,-0.166l0.359,-0.169l0.36,-0.172l0.359,-0.173l0.359,-0.177l0.359,-0.18l0.358,-0.182l0.358,-0.184l0.358,-0.188l0.363,-0.193l0.172,-0.093l0.179,-0.096l0.177,-0.098l0.178,-0.098l0.178,-0.099l0.178,-0.099l0.177,-0.1l0.177,-0.101l0.178,-0.102l0.177,-0.102l0.176,-0.103l0.177,-0.103l0.176,-0.105l0.176,-0.105l0.176,-0.106l0.176,-0.106l0.176,-0.108l0.175,-0.107l0.175,-0.109l0.175,-0.109l0.175,-0.111l0.174,-0.11l0.174,-0.111l0.173,-0.112l0.175,-0.114l0.174,-0.114l0.172,-0.114l0.173,-0.115l0.172,-0.116l0.173,-0.117l0.172,-0.117l0.171,-0.118l0.172,-0.119l0.171,-0.119l0.171,-0.121l0.169,-0.121l0.171,-0.122l0.17,-0.123l0.169,-0.123l0.17,-0.124l0.169,-0.125l0.168,-0.125l0.168,-0.127l0.168,-0.127l0.167,-0.128l0.167,-0.129l0.167,-0.13l0.166,-0.13l0.166,-0.131l0.166,-0.132l0.165,-0.132l0.164,-0.134l0.165,-0.134l0.164,-0.135l0.164,-0.136l0.163,-0.136l0.163,-0.138l0.162,-0.138l0.162,-0.139l0.162,-0.141l0.161,-0.14l0.16,-0.141l0.161,-0.143l0.159,-0.143l0.16,-0.144l0.159,-0.145l0.159,-0.146l0.157,-0.146l0.158,-0.147l0.157,-0.148l0.156,-0.149l0.156,-0.15l0.156,-0.151l0.156,-0.151l0.154,-0.152l0.154,-0.153l0.154,-0.155l0.153,-0.154l0.153,-0.156l0.152,-0.157l0.152,-0.157l0.151,-0.159l0.151,-0.159l0.15,-0.161l0.149,-0.16l0.149,-0.162l0.149,-0.163l0.148,-0.164l0.147,-0.165l0.147,-0.165l0.147,-0.167l0.145,-0.167l0.146,-0.168l0.145,-0.17l0.143,-0.169l0.144,-0.171l0.143,-0.173l0.142,-0.172l0.143,-0.175l0.14,-0.174l0.141,-0.176l0.14,-0.177l0.139,-0.177l0.14,-0.179l0.138,-0.179l0.137,-0.181l0.138,-0.182l0.136,-0.182l0.136,-0.183l0.135,-0.185l0.134,-0.185l0.134,-0.187l0.134,-0.188l0.132,-0.187l0.132,-0.19l0.132,-0.191l0.13,-0.191l0.13,-0.193l0.13,-0.193l0.128,-0.194l0.128,-0.197l0.128,-0.196l0.126,-0.198l0.127,-0.199l0.125,-0.199l0.124,-0.201l0.124,-0.202l0.124,-0.203l0.122,-0.205l0.122,-0.204l0.121,-0.206l0.12,-0.208l0.12,-0.209l0.119,-0.209l0.118,-0.211l0.118,-0.212l0.117,-0.213l0.116,-0.214l0.115,-0.215l0.115,-0.216l0.113,-0.218l0.113,-0.218l0.112,-0.22l0.112,-0.221l0.111,-0.222l0.11,-0.223l0.109,-0.224l0.108,-0.226l0.108,-0.227l0.106,-0.228l0.106,-0.229l0.105,-0.23l0.104,-0.232l0.104,-0.233l0.103,-0.234l0.101,-0.235l0.102,-0.237l0.1,-0.237l0.099,-0.239l0.098,-0.241l0.098,-0.241l0.097,-0.243l0.096,-0.244l0.094,-0.245l0.095,-0.246l0.093,-0.249l0.092,-0.249l0.092,-0.25l0.09,-0.252l0.09,-0.252l0.088,-0.255l0.088,-0.256l0.087,-0.257l0.086,-0.258l0.085,-0.26l0.084,-0.261l0.083,-0.262l0.082,-0.264l0.081,-0.266l0.08,-0.266l0.08,-0.267l0.078,-0.269l0.077,-0.272l0.076,-0.272l0.076,-0.273l0.074,-0.275l0.073,-0.275l0.072,-0.278l0.071,-0.279l0.07,-0.281l0.07,-0.282l0.068,-0.283l0.067,-0.284l0.065,-0.286l0.065,-0.288l0.064,-0.29l0.063,-0.29l0.061,-0.292l0.061,-0.293l0.059,-0.295l0.058,-0.297l0.058,-0.298l0.056,-0.299l0.055,-0.301l0.053,-0.303l0.053,-0.304l0.051,-0.305l0.051,-0.307l0.049,-0.308l0.048,-0.31l0.047,-0.312l0.045,-0.313l0.045,-0.314l0.043,-0.317l0.042,-0.317l0.041,-0.32l0.039,-0.321l0.038,-0.322l0.038,-0.324l0.035,-0.325l0.035,-0.328l0.033,-0.328l0.032,-0.331l0.031,-0.331l0.029,-0.334l0.029,-0.335l0.027,-0.337l0.025,-0.338l0.024,-0.34l0.023,-0.341l0.022,-0.344l0.02,-0.345l0.019,-0.346l0.018,-0.348l0.016,-0.35l0.015,-0.351l0.013,-0.354l0.012,-0.354l0.011,-0.356l0.009,-0.358l0.008,-0.36l0.006,-0.361l0.005,-0.364l0.004,-0.364l0.002,-0.366l0.001,-0.376l0,-490.156l-146.3,0l0,490.141l0.001,0.084l0.004,0.182l0.003,0.112l0.004,0.14l0.006,0.162l0.007,0.184l0.01,0.204l0.011,0.224l0.013,0.243l0.016,0.263l0.018,0.281l0.021,0.301l0.023,0.319l0.027,0.335l0.03,0.354l0.034,0.37l0.037,0.387l0.041,0.402l0.045,0.419l0.05,0.439l0.025,0.217l0.028,0.226l0.028,0.23l0.03,0.233l0.03,0.237l0.032,0.24l0.034,0.243l0.034,0.247l0.036,0.251l0.037,0.253l0.038,0.257l0.04,0.26l0.041,0.263l0.042,0.266l0.044,0.269l0.045,0.272l0.047,0.274l0.048,0.278l0.05,0.281l0.051,0.283l0.052,0.286l0.054,0.288l0.056,0.292l0.058,0.294l0.059,0.296l0.06,0.298l0.062,0.301l0.064,0.304l0.066,0.305l0.067,0.308l0.069,0.31l0.071,0.312l0.073,0.314l0.074,0.317l0.076,0.318l0.079,0.32l0.08,0.322l0.081,0.324l0.084,0.325l0.086,0.328l0.087,0.329l0.09,0.331l0.091,0.332l0.094,0.333l0.095,0.336l0.098,0.337l0.1,0.337l0.101,0.339l0.104,0.341l0.106,0.342l0.108,0.343l0.11,0.344l0.113,0.345l0.114,0.346l0.117,0.347l0.119,0.349l0.122,0.348l0.123,0.35l0.126,0.351l0.128,0.351l0.13,0.352l0.133,0.353l0.135,0.353l0.138,0.353l0.14,0.354l0.142,0.355l0.145,0.354l0.147,0.356l0.149,0.355l0.152,0.356l0.155,0.356l0.157,0.356l0.16,0.356l0.162,0.356l0.165,0.357l0.167,0.356l0.17,0.356l0.172,0.356l0.175,0.356l0.178,0.355l0.18,0.355l0.183,0.355l0.186,0.355l0.189,0.354l0.194,0.36l0.094,0.171l0.097,0.176l0.196,0.352l0.1,0.177l0.1,0.175l0.202,0.352l0.102,0.176l0.103,0.175l0.104,0.174l0.104,0.175l0.105,0.175l0.106,0.175l0.106,0.174l0.107,0.174l0.108,0.174l0.109,0.174l0.109,0.173l0.11,0.173l0.222,0.346l0.113,0.173l0.112,0.172l0.114,0.171l0.115,0.173l0.115,0.172l0.232,0.342l0.117,0.17l0.119,0.17l0.119,0.171l0.24,0.34l0.12,0.168l0.246,0.338l0.123,0.168l0.124,0.168l0.125,0.168l0.126,0.167l0.127,0.168l0.126,0.166l0.129,0.166l0.128,0.166l0.13,0.166l0.262,0.33l0.131,0.164l0.133,0.164l0.134,0.165l0.27,0.326l0.136,0.162l0.137,0.163l0.137,0.161l0.138,0.161l0.14,0.162l0.14,0.161l0.14,0.159l0.142,0.16l0.143,0.159l0.143,0.16l0.435,0.474l0.294,0.314l0.298,0.312l0.15,0.155l0.151,0.155l0.152,0.155l0.152,0.153l0.309,0.307l0.31,0.304l0.157,0.151l0.159,0.152l0.318,0.3l0.161,0.15l0.161,0.149l0.326,0.296l0.164,0.148l0.165,0.147l0.166,0.146l0.167,0.145l0.168,0.146l0.169,0.145l0.169,0.144l0.17,0.143l0.172,0.144l0.173,0.142l0.174,0.142l0.174,0.141l0.175,0.141l0.176,0.14l0.177,0.14l0.358,0.278l0.18,0.138l0.182,0.137l0.181,0.136l0.184,0.137l0.183,0.135l0.185,0.135l0.374,0.268l0.188,0.133l0.189,0.133l0.19,0.131l0.191,0.131l0.193,0.131l0.193,0.13l0.194,0.129l0.195,0.128l0.197,0.129l0.197,0.127l0.199,0.126l0.2,0.126l0.2,0.125l0.202,0.125l0.202,0.124l0.204,0.123l0.206,0.123l0.412,0.242l0.208,0.12l0.21,0.12l0.422,0.238l0.213,0.117l0.214,0.117l0.215,0.116l0.216,0.115l0.218,0.115l0.218,0.114l0.219,0.113l0.221,0.112l0.222,0.112l0.223,0.111l0.224,0.11l0.226,0.109l0.227,0.109l0.228,0.108l0.228,0.106l0.23,0.106l0.233,0.106l0.232,0.104l0.234,0.104l0.235,0.103l0.237,0.102l0.237,0.101l0.239,0.101l0.24,0.099l0.242,0.099l0.242,0.098l0.244,0.097l0.245,0.096l0.246,0.095l0.249,0.095l0.249,0.094l0.25,0.092l0.252,0.092l0.253,0.091l0.254,0.09l0.256,0.089l0.257,0.089l0.259,0.087l0.259,0.086l0.261,0.086l0.262,0.084l0.264,0.084l0.266,0.083l0.266,0.081l0.268,0.081l0.269,0.08l0.27,0.078l0.273,0.078l0.273,0.077l0.274,0.076l0.277,0.075l0.277,0.074l0.28,0.072l0.281,0.072l0.281,0.071l0.284,0.07l0.285,0.069l0.285,0.067l0.288,0.067l0.289,0.065l0.291,0.065l0.292,0.063l0.293,0.063l0.296,0.061l0.296,0.06l0.298,0.059l0.3,0.058l0.301,0.057l0.302,0.056l0.304,0.054l0.306,0.054l0.306,0.052l0.62,0.102l0.311,0.048l0.313,0.048l0.314,0.047l0.317,0.045l0.318,0.044l0.32,0.043l0.32,0.042l0.322,0.04l0.325,0.04l0.326,0.038l0.327,0.037l0.329,0.035l0.33,0.035l0.333,0.033l0.333,0.032l0.335,0.03l0.337,0.03l0.339,0.028l0.339,0.026l0.342,0.026l0.344,0.024l0.345,0.023l0.346,0.021l0.349,0.02l0.349,0.019l0.352,0.018l0.353,0.016l0.355,0.014l0.357,0.014l0.358,0.012l0.359,0.01l0.362,0.01l0.363,0.007l0.365,0.007l0.367,0.005l0.738,0.006l0.379,0Z" style="fill:#fff;"/><clipPath id="tag8"><path d="M316.667,304.167l0,273.125c0,0 0,51.875 52.014,51.875l20.958,0c0,0 52.028,0 52.028,-51.875l0,-273.125l-125,0Z"/></clipPath><g clip-path="url({{site.baseurl}}#tag8)"><rect x="295.833" y="283.333" width="166.667" height="366.667" style="fill:#a7166a;"/></g><clipPath id="tag9"><path d="M62.5,79.1667l0,498.264c0,0 0,68.402 68.931,68.402l24.625,0c0,0 68.944,0 68.944,-68.402l0,-498.264l-162.5,0Z"/></clipPath><g clip-path="url({{site.baseurl}}#tag9)"><rect x="41.6667" y="58.3333" width="204.167" height="608.333" style="fill:#fff;"/></g><path d="M131.423,653.933l-0.427,0l-0.434,-0.003l-0.431,-0.004l-0.43,-0.006l-0.429,-0.008l-0.427,-0.009l-0.426,-0.011l-0.424,-0.012l-0.424,-0.014l-0.421,-0.016l-0.42,-0.018l-0.419,-0.019l-0.417,-0.02l-0.416,-0.023l-0.414,-0.024l-0.413,-0.025l-0.412,-0.028l-0.41,-0.028l-0.409,-0.031l-0.407,-0.032l-0.406,-0.033l-0.405,-0.036l-0.403,-0.036l-0.402,-0.039l-0.4,-0.04l-0.399,-0.041l-0.397,-0.043l-0.396,-0.045l-0.395,-0.046l-0.393,-0.048l-0.392,-0.049l-0.391,-0.051l-0.389,-0.052l-0.387,-0.054l-0.386,-0.055l-0.385,-0.057l-0.384,-0.059l-0.382,-0.06l-0.381,-0.061l-0.379,-0.063l-0.378,-0.065l-0.377,-0.066l-0.375,-0.067l-0.374,-0.069l-0.373,-0.07l-0.37,-0.072l-0.37,-0.073l-0.369,-0.075l-0.366,-0.076l-0.366,-0.078l-0.364,-0.079l-0.363,-0.08l-0.361,-0.082l-0.361,-0.084l-0.359,-0.085l-0.357,-0.086l-0.355,-0.087l-0.356,-0.09l-0.353,-0.09l-0.351,-0.092l-0.351,-0.093l-0.349,-0.095l-0.348,-0.096l-0.346,-0.097l-0.345,-0.099l-0.345,-0.1l-0.342,-0.101l-0.34,-0.103l-0.34,-0.104l-0.338,-0.106l-0.337,-0.106l-0.336,-0.108l-0.334,-0.11l-0.333,-0.111l-0.331,-0.112l-0.33,-0.113l-0.329,-0.114l-0.328,-0.116l-0.326,-0.118l-0.324,-0.118l-0.324,-0.12l-0.322,-0.121l-0.32,-0.122l-0.3192,-0.123l-0.3183,-0.125l-0.3165,-0.126l-0.3152,-0.127l-0.314,-0.129l-0.3121,-0.129l-0.3109,-0.131l-0.3104,-0.132l-0.3085,-0.133l-0.3065,-0.134l-0.3061,-0.136l-0.3048,-0.137l-0.3023,-0.138l-0.3017,-0.139l-0.3012,-0.14l-0.2986,-0.142l-0.2974,-0.142l-0.2962,-0.144l-0.295,-0.144l-0.2938,-0.146l-0.2926,-0.147l-0.2907,-0.148l-0.2894,-0.149l-0.289,-0.151l-0.2864,-0.151l-0.2852,-0.152l-0.2846,-0.154l-0.2828,-0.154l-0.2816,-0.156l-0.2803,-0.157l-0.2785,-0.157l-0.2773,-0.159l-0.2761,-0.159l-0.2756,-0.161l-0.2737,-0.162l-0.2718,-0.163l-0.2706,-0.163l-0.2694,-0.165l-0.2689,-0.166l-0.267,-0.166l-0.2646,-0.167l-0.2646,-0.169l-0.2634,-0.17l-0.2609,-0.17l-0.2604,-0.171l-0.2586,-0.172l-0.2579,-0.173l-0.2563,-0.174l-0.255,-0.175l-0.2537,-0.176l-0.252,-0.176l-0.2514,-0.178l-0.2496,-0.179l-0.2478,-0.178l-0.2472,-0.18l-0.246,-0.182l-0.2443,-0.181l-0.2436,-0.183l-0.2419,-0.183l-0.2401,-0.184l-0.2395,-0.185l-0.2377,-0.186l-0.2366,-0.186l-0.2354,-0.187l-0.2342,-0.188l-0.233,-0.189l-0.2314,-0.19l-0.2301,-0.19l-0.2283,-0.19l-0.2278,-0.192l-0.2272,-0.193l-0.2249,-0.193l-0.2231,-0.193l-0.2227,-0.195l-0.2219,-0.195l-0.2197,-0.196l-0.2186,-0.196l-0.2178,-0.198l-0.2157,-0.197l-0.2151,-0.198l-0.214,-0.2l-0.2122,-0.199l-0.2112,-0.2l-0.2094,-0.2l-0.2088,-0.202l-0.2083,-0.203l-0.206,-0.202l-0.2044,-0.203l-0.2038,-0.203l-0.2031,-0.205l-0.201,-0.205l-0.2,-0.205l-0.1992,-0.206l-0.1971,-0.206l-0.1966,-0.207l-0.1954,-0.207l-0.1939,-0.208l-0.1926,-0.208l-0.1917,-0.209l-0.1905,-0.21l-0.1889,-0.209l-0.1878,-0.21l-0.1868,-0.211l-0.1861,-0.211l-0.1845,-0.212l-0.1826,-0.211l-0.1824,-0.213l-0.1813,-0.213l-0.1793,-0.213l-0.1787,-0.213l-0.1776,-0.214l-0.1761,-0.215l-0.1746,-0.214l-0.174,-0.215l-0.1733,-0.216l-0.1714,-0.215l-0.1704,-0.216l-0.1697,-0.217l-0.1683,-0.216l-0.1668,-0.217l-0.1661,-0.218l-0.1648,-0.217l-0.1637,-0.218l-0.1626,-0.218l-0.1616,-0.219l-0.1606,-0.219l-0.1589,-0.218l-0.1581,-0.219l-0.1575,-0.22l-0.1561,-0.22l-0.1547,-0.219l-0.1538,-0.221l-0.1527,-0.22l-0.1517,-0.22l-0.1507,-0.221l-0.1498,-0.222l-0.1483,-0.221l-0.1471,-0.22l-0.1467,-0.222l-0.1454,-0.222l-0.1441,-0.222l-0.1431,-0.222l-0.1422,-0.222l-0.1415,-0.222l-0.1399,-0.222l-0.1389,-0.223l-0.1382,-0.223l-0.137,-0.222l-0.1361,-0.223l-0.1351,-0.223l-0.1339,-0.223l-0.1328,-0.223l-0.1323,-0.223l-0.1311,-0.224l-0.1298,-0.222l-0.1289,-0.223l-0.1282,-0.224l-0.1273,-0.224l-0.1258,-0.223l-0.125,-0.223l-0.1243,-0.224l-0.1233,-0.224l-0.1253,-0.229l-0.2384,-0.441l-0.2379,-0.447l-0.2341,-0.446l-0.2303,-0.447l-0.2266,-0.446l-0.2232,-0.447l-0.2193,-0.445l-0.2157,-0.445l-0.2123,-0.445l-0.2087,-0.445l-0.2052,-0.444l-0.2018,-0.443l-0.1984,-0.443l-0.1949,-0.442l-0.1916,-0.441l-0.1884,-0.44l-0.1849,-0.44l-0.1816,-0.438l-0.1786,-0.438l-0.1753,-0.437l-0.172,-0.436l-0.1691,-0.434l-0.1659,-0.434l-0.1628,-0.432l-0.1597,-0.431l-0.1569,-0.43l-0.1537,-0.429l-0.1509,-0.427l-0.148,-0.426l-0.145,-0.424l-0.1422,-0.422l-0.1393,-0.421l-0.1366,-0.42l-0.1339,-0.418l-0.1311,-0.416l-0.1284,-0.414l-0.1257,-0.412l-0.1231,-0.411l-0.1205,-0.409l-0.1179,-0.406l-0.1154,-0.405l-0.1129,-0.403l-0.1104,-0.4l-0.1079,-0.399l-0.1054,-0.396l-0.1031,-0.394l-0.1008,-0.392l-0.0983,-0.389l-0.0961,-0.387l-0.0938,-0.385l-0.0915,-0.382l-0.0893,-0.379l-0.0872,-0.377l-0.085,-0.375l-0.0828,-0.371l-0.0807,-0.369l-0.0787,-0.367l-0.0765,-0.363l-0.0746,-0.36l-0.0726,-0.358l-0.0706,-0.355l-0.0687,-0.351l-0.0667,-0.349l-0.0649,-0.346l-0.0631,-0.342l-0.0612,-0.34l-0.0594,-0.335l-0.0577,-0.333l-0.0559,-0.33l-0.0542,-0.326l-0.0525,-0.323l-0.0509,-0.319l-0.0492,-0.316l-0.0476,-0.312l-0.0461,-0.308l-0.0445,-0.305l-0.043,-0.301l-0.0414,-0.298l-0.04,-0.293l-0.0386,-0.29l-0.0372,-0.286l-0.0358,-0.282l-0.0344,-0.278l-0.0331,-0.274l-0.0325,-0.276l-0.0591,-0.522l-0.0549,-0.51l-0.0502,-0.494l-0.0457,-0.476l-0.0415,-0.457l-0.0374,-0.44l-0.0336,-0.421l-0.03,-0.401l-0.0265,-0.383l-0.0234,-0.362l-0.0203,-0.342l-0.0175,-0.322l-0.015,-0.3l-0.0126,-0.279l-0.0104,-0.258l-0.0084,-0.235l-0.0067,-0.213l-0.0053,-0.197l-0.0062,-0.299l-0.0027,-0.21l-0.0005,-0.1l0,-506.385l178.7,0l0,506.372l-0.001,0.423l-0.002,0.431l-0.005,0.429l-0.006,0.428l-0.007,0.426l-0.009,0.425l-0.011,0.423l-0.013,0.422l-0.014,0.421l-0.016,0.419l-0.018,0.417l-0.019,0.417l-0.021,0.414l-0.023,0.414l-0.024,0.412l-0.026,0.411l-0.027,0.409l-0.029,0.408l-0.031,0.406l-0.032,0.405l-0.034,0.404l-0.036,0.402l-0.037,0.4l-0.039,0.4l-0.04,0.398l-0.042,0.397l-0.043,0.395l-0.046,0.394l-0.046,0.392l-0.048,0.391l-0.05,0.39l-0.051,0.388l-0.053,0.387l-0.055,0.385l-0.056,0.384l-0.057,0.383l-0.059,0.382l-0.061,0.38l-0.062,0.378l-0.063,0.377l-0.065,0.376l-0.067,0.375l-0.068,0.373l-0.07,0.372l-0.071,0.37l-0.072,0.369l-0.074,0.368l-0.076,0.366l-0.077,0.365l-0.078,0.364l-0.08,0.362l-0.081,0.36l-0.083,0.36l-0.084,0.358l-0.086,0.357l-0.087,0.355l-0.089,0.354l-0.09,0.353l-0.091,0.351l-0.093,0.35l-0.094,0.349l-0.096,0.347l-0.096,0.346l-0.099,0.344l-0.099,0.343l-0.102,0.342l-0.102,0.341l-0.104,0.339l-0.105,0.338l-0.106,0.336l-0.108,0.335l-0.109,0.333l-0.111,0.333l-0.112,0.331l-0.113,0.329l-0.114,0.329l-0.116,0.327l-0.117,0.325l-0.118,0.324l-0.12,0.323l-0.121,0.322l-0.122,0.32l-0.124,0.319l-0.124,0.317l-0.126,0.316l-0.127,0.315l-0.129,0.313l-0.13,0.312l-0.13,0.311l-0.133,0.309l-0.133,0.308l-0.134,0.307l-0.136,0.305l-0.137,0.304l-0.138,0.303l-0.139,0.301l-0.141,0.3l-0.141,0.299l-0.143,0.297l-0.144,0.296l-0.145,0.294l-0.146,0.293l-0.147,0.292l-0.149,0.291l-0.149,0.289l-0.151,0.288l-0.151,0.286l-0.153,0.286l-0.154,0.284l-0.155,0.282l-0.156,0.281l-0.157,0.28l-0.158,0.278l-0.159,0.277l-0.16,0.276l-0.161,0.275l-0.163,0.273l-0.163,0.272l-0.164,0.27l-0.165,0.269l-0.166,0.268l-0.168,0.267l-0.168,0.265l-0.169,0.264l-0.17,0.262l-0.171,0.261l-0.172,0.26l-0.173,0.259l-0.173,0.257l-0.175,0.255l-0.175,0.255l-0.177,0.253l-0.177,0.253l-0.178,0.25l-0.179,0.249l-0.18,0.248l-0.181,0.247l-0.182,0.245l-0.182,0.245l-0.183,0.242l-0.184,0.242l-0.186,0.24l-0.185,0.239l-0.186,0.237l-0.188,0.237l-0.188,0.235l-0.189,0.234l-0.189,0.232l-0.191,0.231l-0.19,0.229l-0.192,0.229l-0.193,0.228l-0.193,0.225l-0.194,0.225l-0.195,0.224l-0.195,0.222l-0.196,0.221l-0.197,0.22l-0.197,0.218l-0.198,0.217l-0.199,0.216l-0.2,0.214l-0.2,0.214l-0.2,0.212l-0.201,0.21l-0.202,0.21l-0.202,0.209l-0.203,0.207l-0.204,0.206l-0.204,0.204l-0.205,0.203l-0.205,0.203l-0.206,0.201l-0.206,0.199l-0.207,0.199l-0.208,0.197l-0.207,0.196l-0.209,0.195l-0.209,0.194l-0.21,0.193l-0.209,0.191l-0.211,0.19l-0.211,0.188l-0.211,0.188l-0.212,0.187l-0.212,0.185l-0.212,0.184l-0.214,0.183l-0.213,0.182l-0.214,0.18l-0.215,0.18l-0.214,0.178l-0.215,0.177l-0.215,0.176l-0.216,0.175l-0.217,0.174l-0.217,0.172l-0.216,0.171l-0.218,0.171l-0.217,0.169l-0.218,0.168l-0.219,0.167l-0.218,0.165l-0.219,0.165l-0.219,0.164l-0.219,0.162l-0.22,0.161l-0.22,0.16l-0.22,0.159l-0.22,0.158l-0.221,0.157l-0.221,0.156l-0.222,0.154l-0.221,0.154l-0.222,0.153l-0.222,0.151l-0.222,0.15l-0.222,0.149l-0.223,0.149l-0.223,0.147l-0.222,0.146l-0.223,0.145l-0.223,0.144l-0.224,0.144l-0.224,0.142l-0.223,0.14l-0.223,0.14l-0.224,0.139l-0.225,0.138l-0.223,0.137l-0.225,0.135l-0.224,0.135l-0.224,0.134l-0.225,0.133l-0.224,0.132l-0.225,0.131l-0.225,0.129l-0.224,0.129l-0.225,0.128l-0.226,0.127l-0.224,0.126l-0.224,0.125l-0.225,0.124l-0.226,0.123l-0.225,0.122l-0.231,0.124l-0.443,0.237l-0.45,0.235l-0.45,0.232l-0.45,0.229l-0.448,0.224l-0.449,0.221l-0.449,0.218l-0.448,0.213l-0.448,0.211l-0.448,0.207l-0.446,0.203l-0.446,0.2l-0.446,0.197l-0.445,0.193l-0.443,0.189l-0.444,0.187l-0.442,0.183l-0.442,0.18l-0.44,0.177l-0.44,0.174l-0.438,0.17l-0.438,0.168l-0.436,0.164l-0.435,0.161l-0.434,0.159l-0.432,0.155l-0.432,0.152l-0.429,0.15l-0.428,0.146l-0.427,0.144l-0.426,0.141l-0.423,0.138l-0.422,0.135l-0.421,0.133l-0.419,0.13l-0.416,0.127l-0.415,0.125l-0.413,0.121l-0.411,0.12l-0.41,0.117l-0.407,0.114l-0.405,0.112l-0.403,0.109l-0.401,0.107l-0.399,0.105l-0.396,0.102l-0.395,0.1l-0.391,0.097l-0.39,0.095l-0.387,0.093l-0.384,0.091l-0.382,0.088l-0.379,0.086l-0.377,0.085l-0.374,0.082l-0.371,0.08l-0.369,0.078l-0.365,0.075l-0.363,0.074l-0.36,0.072l-0.357,0.07l-0.354,0.068l-0.35,0.066l-0.348,0.065l-0.345,0.062l-0.34,0.061l-0.339,0.059l-0.335,0.057l-0.331,0.055l-0.328,0.054l-0.325,0.052l-0.321,0.05l-0.318,0.049l-0.314,0.047l-0.31,0.046l-0.307,0.044l-0.303,0.042l-0.299,0.041l-0.296,0.04l-0.291,0.038l-0.288,0.037l-0.284,0.036l-0.285,0.034l-0.541,0.064l-0.531,0.059l-0.514,0.054l-0.496,0.05l-0.478,0.045l-0.461,0.041l-0.442,0.038l-0.424,0.033l-0.403,0.029l-0.384,0.027l-0.365,0.023l-0.344,0.02l-0.323,0.017l-0.302,0.015l-0.28,0.013l-0.258,0.01l-0.237,0.008l-0.214,0.007l-0.198,0.005l-0.3,0.006l-0.211,0.003l-0.1,0l-24.652,0ZM131.438,637.733l24.598,0l0.085,-0.001l0.184,-0.004l0.114,-0.003l0.143,-0.004l0.164,-0.006l0.185,-0.007l0.207,-0.009l0.226,-0.011l0.247,-0.014l0.266,-0.015l0.284,-0.018l0.304,-0.021l0.322,-0.024l0.34,-0.026l0.357,-0.03l0.374,-0.034l0.391,-0.037l0.407,-0.04l0.423,-0.045l0.438,-0.049l0.459,-0.054l0.227,-0.028l0.235,-0.029l0.239,-0.031l0.243,-0.031l0.245,-0.033l0.25,-0.035l0.253,-0.035l0.255,-0.037l0.261,-0.038l0.262,-0.039l0.265,-0.041l0.269,-0.042l0.272,-0.044l0.274,-0.045l0.279,-0.046l0.28,-0.048l0.283,-0.049l0.286,-0.051l0.289,-0.053l0.291,-0.054l0.295,-0.055l0.296,-0.057l0.299,-0.059l0.302,-0.06l0.304,-0.062l0.306,-0.063l0.309,-0.066l0.311,-0.067l0.313,-0.068l0.315,-0.071l0.318,-0.072l0.319,-0.074l0.322,-0.076l0.323,-0.077l0.325,-0.08l0.327,-0.081l0.329,-0.084l0.331,-0.085l0.332,-0.087l0.334,-0.089l0.336,-0.091l0.337,-0.093l0.339,-0.095l0.339,-0.097l0.341,-0.099l0.343,-0.101l0.344,-0.104l0.346,-0.105l0.346,-0.107l0.347,-0.11l0.349,-0.112l0.349,-0.114l0.351,-0.116l0.351,-0.118l0.353,-0.121l0.353,-0.123l0.354,-0.125l0.355,-0.127l0.355,-0.13l0.356,-0.132l0.357,-0.134l0.357,-0.137l0.358,-0.139l0.358,-0.141l0.358,-0.144l0.359,-0.147l0.359,-0.148l0.359,-0.151l0.36,-0.154l0.36,-0.156l0.358,-0.159l0.36,-0.161l0.361,-0.164l0.359,-0.166l0.359,-0.169l0.36,-0.172l0.359,-0.173l0.359,-0.177l0.359,-0.18l0.358,-0.182l0.358,-0.184l0.357,-0.188l0.364,-0.193l0.173,-0.093l0.178,-0.096l0.177,-0.097l0.178,-0.099l0.178,-0.099l0.178,-0.099l0.177,-0.1l0.177,-0.101l0.177,-0.102l0.178,-0.102l0.176,-0.103l0.177,-0.104l0.176,-0.104l0.176,-0.105l0.176,-0.106l0.176,-0.106l0.176,-0.108l0.175,-0.107l0.175,-0.109l0.175,-0.109l0.175,-0.111l0.174,-0.11l0.174,-0.111l0.174,-0.113l0.174,-0.113l0.173,-0.114l0.173,-0.114l0.172,-0.115l0.173,-0.116l0.173,-0.117l0.172,-0.117l0.171,-0.118l0.172,-0.119l0.171,-0.119l0.17,-0.121l0.17,-0.121l0.171,-0.122l0.17,-0.123l0.169,-0.123l0.17,-0.124l0.169,-0.125l0.168,-0.125l0.168,-0.127l0.168,-0.127l0.167,-0.128l0.167,-0.129l0.167,-0.13l0.166,-0.13l0.166,-0.131l0.166,-0.132l0.165,-0.132l0.164,-0.134l0.165,-0.134l0.164,-0.135l0.164,-0.136l0.163,-0.136l0.163,-0.138l0.162,-0.139l0.162,-0.138l0.162,-0.14l0.161,-0.141l0.16,-0.141l0.161,-0.143l0.159,-0.143l0.16,-0.144l0.159,-0.145l0.159,-0.146l0.157,-0.146l0.157,-0.147l0.158,-0.148l0.156,-0.149l0.156,-0.15l0.157,-0.151l0.155,-0.151l0.154,-0.152l0.154,-0.153l0.154,-0.155l0.153,-0.154l0.153,-0.156l0.152,-0.157l0.151,-0.157l0.152,-0.159l0.151,-0.159l0.15,-0.16l0.149,-0.162l0.149,-0.161l0.149,-0.163l0.148,-0.164l0.147,-0.164l0.147,-0.166l0.147,-0.167l0.145,-0.167l0.146,-0.168l0.145,-0.17l0.143,-0.169l0.144,-0.171l0.143,-0.173l0.142,-0.172l0.142,-0.175l0.142,-0.174l0.14,-0.176l0.14,-0.176l0.139,-0.178l0.14,-0.179l0.138,-0.179l0.137,-0.181l0.138,-0.182l0.136,-0.182l0.136,-0.184l0.135,-0.184l0.134,-0.185l0.134,-0.187l0.134,-0.187l0.132,-0.188l0.132,-0.19l0.131,-0.191l0.131,-0.191l0.13,-0.193l0.13,-0.193l0.128,-0.195l0.128,-0.196l0.128,-0.196l0.126,-0.198l0.126,-0.199l0.126,-0.199l0.124,-0.201l0.124,-0.202l0.124,-0.203l0.122,-0.205l0.122,-0.204l0.121,-0.206l0.12,-0.208l0.12,-0.208l0.119,-0.21l0.118,-0.211l0.118,-0.212l0.117,-0.213l0.116,-0.214l0.115,-0.215l0.114,-0.216l0.114,-0.217l0.113,-0.219l0.112,-0.22l0.112,-0.221l0.111,-0.222l0.109,-0.223l0.11,-0.225l0.108,-0.225l0.108,-0.227l0.106,-0.228l0.106,-0.229l0.105,-0.23l0.105,-0.232l0.103,-0.233l0.103,-0.234l0.102,-0.235l0.101,-0.237l0.1,-0.237l0.099,-0.239l0.098,-0.24l0.098,-0.242l0.097,-0.243l0.096,-0.244l0.094,-0.245l0.095,-0.247l0.093,-0.247l0.092,-0.25l0.092,-0.25l0.09,-0.252l0.09,-0.253l0.088,-0.254l0.088,-0.256l0.087,-0.257l0.086,-0.258l0.085,-0.26l0.084,-0.261l0.083,-0.262l0.082,-0.264l0.081,-0.265l0.08,-0.267l0.08,-0.267l0.078,-0.27l0.077,-0.27l0.076,-0.272l0.076,-0.274l0.074,-0.274l0.073,-0.277l0.072,-0.277l0.071,-0.279l0.07,-0.281l0.069,-0.281l0.069,-0.284l0.066,-0.284l0.066,-0.287l0.065,-0.287l0.064,-0.289l0.063,-0.291l0.061,-0.292l0.061,-0.294l0.059,-0.294l0.058,-0.297l0.058,-0.298l0.056,-0.299l0.055,-0.301l0.053,-0.303l0.053,-0.303l0.051,-0.306l0.051,-0.307l0.049,-0.308l0.048,-0.31l0.047,-0.312l0.045,-0.313l0.045,-0.315l0.043,-0.316l0.042,-0.317l0.041,-0.32l0.039,-0.321l0.038,-0.322l0.038,-0.324l0.035,-0.325l0.035,-0.328l0.033,-0.328l0.032,-0.331l0.031,-0.332l0.029,-0.333l0.029,-0.335l0.027,-0.337l0.025,-0.338l0.024,-0.34l0.023,-0.342l0.022,-0.343l0.02,-0.345l0.019,-0.346l0.018,-0.348l0.016,-0.35l0.015,-0.351l0.013,-0.353l0.012,-0.355l0.011,-0.356l0.009,-0.358l0.008,-0.36l0.006,-0.361l0.005,-0.363l0.004,-0.365l0.002,-0.366l0.001,-0.376l0,-490.156l-146.3,0l0,490.141l0.0011,0.084l0.0037,0.182l0.003,0.111l0.0045,0.141l0.0058,0.163l0.0074,0.183l0.0092,0.204l0.0111,0.223l0.0133,0.244l0.0156,0.263l0.0182,0.282l0.0208,0.3l0.0238,0.318l0.0268,0.336l0.0301,0.354l0.0335,0.37l0.0372,0.387l0.041,0.402l0.0449,0.419l0.0499,0.439l0.0255,0.217l0.0273,0.226l0.0284,0.23l0.0296,0.233l0.0308,0.237l0.0319,0.24l0.0333,0.243l0.0344,0.248l0.0357,0.25l0.037,0.253l0.0383,0.257l0.0397,0.26l0.041,0.263l0.0424,0.266l0.0438,0.269l0.0452,0.272l0.0466,0.275l0.0481,0.277l0.0496,0.281l0.0511,0.283l0.0527,0.286l0.0541,0.288l0.0558,0.292l0.0573,0.293l0.059,0.297l0.0606,0.298l0.0622,0.301l0.064,0.304l0.0656,0.305l0.0673,0.308l0.0692,0.31l0.0707,0.312l0.0727,0.314l0.0744,0.317l0.0763,0.318l0.078,0.32l0.08,0.322l0.0818,0.324l0.0837,0.325l0.0857,0.328l0.0876,0.329l0.0896,0.331l0.0915,0.332l0.0935,0.333l0.0956,0.336l0.0976,0.336l0.0996,0.338l0.1017,0.34l0.1039,0.34l0.106,0.342l0.108,0.343l0.1102,0.344l0.1124,0.345l0.1146,0.346l0.1168,0.347l0.1191,0.349l0.1212,0.348l0.1235,0.35l0.1259,0.351l0.128,0.351l0.1305,0.352l0.1328,0.352l0.135,0.353l0.1375,0.354l0.1399,0.354l0.1423,0.355l0.1446,0.354l0.1473,0.356l0.1496,0.355l0.152,0.356l0.1545,0.356l0.1572,0.356l0.1595,0.356l0.1621,0.356l0.1647,0.357l0.1673,0.356l0.1699,0.356l0.1725,0.356l0.1751,0.356l0.1777,0.355l0.1803,0.355l0.1832,0.355l0.1857,0.355l0.1884,0.354l0.1944,0.359l0.0936,0.172l0.0971,0.176l0.0979,0.176l0.0988,0.176l0.0997,0.177l0.0998,0.176l0.1006,0.175l0.1016,0.176l0.1024,0.176l0.1028,0.175l0.1033,0.174l0.1045,0.176l0.1051,0.174l0.1056,0.175l0.1064,0.174l0.1072,0.174l0.1076,0.174l0.1088,0.174l0.1095,0.174l0.1096,0.172l0.1108,0.173l0.1116,0.173l0.1124,0.173l0.1129,0.172l0.1133,0.172l0.1148,0.172l0.1152,0.172l0.1157,0.171l0.1166,0.17l0.1174,0.171l0.1181,0.171l0.119,0.17l0.1198,0.17l0.1203,0.169l0.1208,0.169l0.122,0.169l0.1231,0.169l0.1232,0.168l0.1241,0.168l0.125,0.168l0.1258,0.167l0.1266,0.167l0.1271,0.167l0.1283,0.166l0.1289,0.166l0.1293,0.166l0.1305,0.165l0.1314,0.165l0.1315,0.164l0.1328,0.164l0.134,0.164l0.1345,0.164l0.135,0.163l0.1359,0.162l0.1372,0.163l0.1372,0.161l0.1381,0.161l0.1399,0.162l0.14,0.161l0.1404,0.159l0.1417,0.16l0.1427,0.16l0.1436,0.159l0.144,0.158l0.145,0.158l0.1459,0.158l0.1468,0.157l0.1473,0.157l0.1483,0.156l0.1497,0.156l0.1496,0.155l0.1511,0.155l0.152,0.155l0.1521,0.153l0.1535,0.153l0.1549,0.154l0.1555,0.153l0.1553,0.151l0.1569,0.151l0.1584,0.152l0.1588,0.15l0.1599,0.15l0.1603,0.15l0.1613,0.149l0.1628,0.148l0.1629,0.148l0.1643,0.148l0.1654,0.147l0.1653,0.146l0.1668,0.145l0.1684,0.146l0.169,0.145l0.1689,0.144l0.1704,0.143l0.1722,0.144l0.1725,0.142l0.1736,0.142l0.1742,0.141l0.1752,0.141l0.1762,0.14l0.1773,0.14l0.1785,0.139l0.1789,0.139l0.1806,0.138l0.1811,0.137l0.1816,0.136l0.1834,0.137l0.1838,0.135l0.185,0.135l0.1867,0.134l0.1871,0.134l0.1877,0.133l0.1896,0.133l0.19,0.131l0.1911,0.131l0.1923,0.131l0.1929,0.129l0.1946,0.13l0.1951,0.128l0.197,0.129l0.1969,0.127l0.1981,0.126l0.2005,0.126l0.2005,0.125l0.201,0.125l0.2029,0.124l0.2041,0.123l0.2053,0.123l0.2059,0.121l0.2064,0.121l0.2084,0.12l0.2096,0.12l0.2108,0.119l0.2115,0.119l0.2127,0.117l0.2139,0.117l0.2146,0.116l0.2165,0.115l0.218,0.115l0.218,0.114l0.219,0.113l0.221,0.112l0.222,0.112l0.223,0.111l0.224,0.11l0.226,0.109l0.227,0.109l0.228,0.108l0.228,0.106l0.23,0.106l0.233,0.106l0.232,0.104l0.234,0.104l0.235,0.103l0.237,0.102l0.237,0.101l0.239,0.101l0.24,0.099l0.242,0.099l0.242,0.098l0.244,0.097l0.245,0.096l0.246,0.095l0.249,0.095l0.249,0.094l0.25,0.092l0.252,0.092l0.253,0.091l0.254,0.09l0.256,0.089l0.257,0.089l0.259,0.087l0.259,0.086l0.261,0.086l0.262,0.084l0.264,0.084l0.266,0.083l0.266,0.081l0.268,0.081l0.269,0.08l0.27,0.078l0.273,0.078l0.273,0.077l0.274,0.076l0.277,0.075l0.277,0.074l0.28,0.072l0.281,0.072l0.281,0.071l0.284,0.07l0.285,0.069l0.285,0.067l0.288,0.067l0.289,0.065l0.291,0.065l0.292,0.063l0.293,0.063l0.296,0.061l0.296,0.06l0.298,0.059l0.3,0.058l0.301,0.057l0.302,0.056l0.304,0.054l0.306,0.054l0.306,0.052l0.31,0.052l0.31,0.05l0.311,0.048l0.313,0.048l0.314,0.047l0.317,0.045l0.318,0.044l0.32,0.043l0.32,0.042l0.322,0.04l0.325,0.04l0.326,0.038l0.327,0.037l0.329,0.035l0.33,0.035l0.333,0.033l0.333,0.032l0.335,0.03l0.337,0.03l0.339,0.028l0.339,0.026l0.342,0.026l0.344,0.024l0.345,0.023l0.346,0.021l0.349,0.02l0.349,0.019l0.352,0.018l0.353,0.016l0.355,0.014l0.357,0.014l0.358,0.012l0.359,0.01l0.362,0.01l0.363,0.007l0.365,0.007l0.367,0.005l0.368,0.003l0.37,0.003l0.379,0Z" style="fill:#fff;"/><clipPath id="tag10"><path d="M83.3333,508.333l0,65.667c0,0 0,51 52.0137,51l20.959,0c0,0 52.027,0 52.027,-51l0,-65.667l-125,0Z"/></clipPath><g clip-path="url({{site.baseurl}}#tag10)"><rect x="62.5" y="487.5" width="166.667" height="158.333" style="fill:#a7166a;"/></g></g></svg>